<svg width="120" height="120" viewBox="0 0 120 120" fill="none" xmlns="http://www.w3.org/2000/svg">
<g clip-path="url(#clip0_4172_34623)">
<path opacity="0.5" d="M60 120C93.1368 120 120 93.1374 120 60C120 26.8629 93.1368 0 60 0C26.8629 0 0 26.8629 0 60C0 93.1374 26.8629 120 60 120Z" fill="#B9DBFF"/>
<path opacity="0.7" d="M60.6 22.7998C47.0208 22.7998 36 33.5662 36 46.8317C36 59.8411 46.4304 70.4153 60.272 70.7998H60.8624H61.3216H61.4528C74.704 70.3512 85.1344 59.8411 85.2 46.8317C85.2 33.5662 74.1792 22.7998 60.6 22.7998Z" fill="#144DD1"/>
<path opacity="0.7" d="M104.4 103.093C92.9009 113.556 77.5256 120 60.6 120C43.6743 120 28.2991 113.556 16.8 103.093C18.3504 97.2875 22.5495 91.9921 28.6867 87.9089C46.323 76.2973 75.0062 76.2973 92.5133 87.9089C98.715 91.9921 102.85 97.2875 104.4 103.093Z" fill="#144DD1"/>
</g>
<defs>
<clipPath id="clip0_4172_34623">
<rect width="120" height="120" fill="white"/>
</clipPath>
</defs>
</svg>
