<svg width="1440" height="900" viewBox="0 0 1440 900" fill="none" xmlns="http://www.w3.org/2000/svg">
<path d="M1439.36 -78.4404H0V631.074H1439.36V-78.4404Z" fill="url(#paint0_linear_4002_10434)"/>
<path opacity="0.15" d="M0 88.0377C14.7401 94.2135 28.3916 101.286 40.74 109.145C57.22 119.867 75.14 132.872 88 145.466C94.28 151.613 95.06 161.381 103.68 166.537C112.3 171.693 118 167.491 128.38 170.534C150.38 176.958 142.68 184.167 146.02 202.907C166.32 207.037 173.76 227.806 188.2 235.993C196.78 240.823 204.06 234.073 211.86 244.59C215.86 250.048 210.1 260.191 212.72 266.241C215.8 273.401 229.16 282.312 233.44 291.199C238.72 302.188 235.26 308.563 247.8 314.263C260.34 319.962 291.66 318.187 305.92 317.885C323.5 317.475 342.2 305.69 359.08 309.553C371.08 312.295 373.08 324.418 379.72 330.081C405.04 351.671 424.76 333.583 457.5 336.275C473.5 337.592 511.1 338.232 524.66 345.73C537.68 352.915 540.66 369.941 552 379.25C566.76 391.325 590.1 398.099 609.78 399.778C653.88 403.497 695.04 398.438 733.68 383.356C749.24 377.318 774.06 374.288 787.68 366.68C804.92 357.093 805.68 333.703 822.16 323.319C840.5 311.715 871.14 318.404 891.36 308.732C905.04 302.188 910.66 289.908 922.9 280.96C947.16 263.318 981.76 270.6 1004.76 256.943C1018.1 249.034 1016.76 237.973 1033.66 228.265C1044.98 221.756 1062.66 221.961 1072.22 216.19C1086.38 207.653 1096.82 176.523 1103.88 164.267C1110.94 152.011 1098.76 153.605 1117.52 143.305C1125.68 138.825 1134.32 136.35 1142.34 131.701C1151.4 126.448 1162.08 116.269 1176.86 115.339C1194.16 114.24 1198.64 119.662 1213.82 117.754C1226.42 116.185 1232.1 110.219 1247.46 109.181C1257.62 108.493 1267.72 111.753 1276.64 111.789C1315.52 111.91 1294 86.154 1321.9 71.7002C1341.9 61.3399 1378.58 77.8947 1398.72 67.9329C1410.32 62.1972 1417.12 45.9564 1429.64 39.774C1432.59 38.2886 1435.82 37.0162 1439.26 35.9824V631.666H0V88.0377Z" fill="white"/>
<path opacity="0.15" d="M0 308.768C18 304.626 32.58 297.647 54 291.598C81.06 283.894 104 292.877 132.28 296.814C184.58 304.059 235.48 300.497 284.94 280.489C314.3 268.619 315.84 243.877 355.76 254.044C372.28 258.246 375.1 271.734 384.84 275.393C394.58 279.052 410.84 275.55 421.2 277.421C431.56 279.293 434.62 285.958 448.44 286.26C455.88 286.429 458.84 281.141 465.54 280.223C479.8 278.339 493.78 278.327 508.58 278.315C520.34 278.315 542.14 281.938 553.16 278.508C563.78 275.188 570.2 261.169 580.62 257.172C596.44 251.134 606.08 259.852 622.24 248.188C632.52 240.774 630.24 232.49 644.02 225.849C649.38 223.277 659.5 227.902 665.24 226.03C670.18 224.424 674.2 217.022 677.82 216.008C692.14 211.999 699.82 206.916 716.42 212.82C728.42 217.071 734.1 228.023 746.42 231.198C757.34 234.024 771.9 227.817 782.62 231.09C795.3 234.966 829.34 258.862 834.26 272.748C838.1 271.77 847.14 268.727 851.74 270.478C864.72 275.429 873.3 284.135 884.88 288.712C904.88 296.633 899.76 289.509 918.12 285.391C946.4 279.027 967.46 291.332 996.66 286.176C1010.46 283.761 1017.46 279.196 1029.48 276.286C1044.7 272.604 1045.64 275.079 1059.58 268.353C1067.98 264.296 1067.22 257.691 1077.74 254.563C1084.98 252.414 1091.74 258.729 1098.56 257.413C1116.86 253.791 1120.56 244.819 1137.8 239.554C1179.8 226.719 1185.38 259.333 1213.98 270.189C1234.74 278.086 1271.98 268.015 1294.52 270.454C1343.12 275.719 1393.9 278.46 1439.48 291.948V631.666H0V308.768Z" fill="white"/>
<path opacity="0.15" d="M0.639893 364.567C36.0199 363.444 68.2599 360.111 102.64 360.171C137.98 360.232 170.86 357.298 179.04 333.136C187.04 331.397 195.04 327.871 203.04 326.47C226.32 322.377 252.04 324.792 275.98 321.845C305.4 318.223 322.56 304.808 355.24 318.223C380.08 328.414 411.56 382.45 454.84 368.238C463 365.557 470.3 355.764 478.56 351.767C488.96 346.72 501.48 344.039 510.88 337.47C528.98 324.792 534.72 310.604 563.54 306.196C601.8 300.352 608.14 312.149 631.96 323.524C652.32 333.256 673.96 333.981 685.22 350.318C707.84 353.772 684.26 380.747 701 388.958C704.78 390.806 728.8 394.561 736.26 396.469C750.7 400.176 758.48 402.229 776.78 401.697C808.64 400.768 858.06 398.715 886.34 390.552C902.34 385.952 913.18 380.892 929.64 376.581C947.9 371.751 953.86 368.503 966.28 360.184C989.52 344.571 997.8 350.898 1028.52 345.802C1040.92 343.749 1046.28 338.714 1057.72 334.705C1071.5 329.875 1084.72 329.199 1101.72 326.675C1129.6 322.534 1140.88 324.26 1169.34 326.675C1202.84 329.489 1209.46 324.321 1223.48 344.245C1226.34 348.314 1223.78 353.096 1226.6 356.778C1228.44 359.193 1238.18 357.781 1239.78 360.534C1243.1 366.245 1239.96 373.671 1244.4 379.455C1246.4 382.172 1255.14 383.488 1256.56 385.251C1259.6 389.007 1261.22 392.231 1264.08 396.59C1269.14 404.257 1260.08 408.556 1274.88 412.939C1286 416.236 1306 410.899 1318.22 411.321C1336.48 411.937 1339.78 415.185 1355.44 419.303C1367.74 422.527 1378.68 422.382 1391.32 425.34C1402.92 428.021 1409.74 433.926 1421.08 436.908L1440 455.6V506.472C1435.46 528.63 1435.46 551.041 1440 573.199V631.243H0.639893V364.567Z" fill="#FFDDDD"/>
<path d="M1440 607H0V901H1440V607Z" fill="#E9CECE"/>
<path d="M0 576.124H38.62L45 581.992H61V593.657H86.58L101.96 587.269H117.32L122.36 583.405H174.28L182.98 590.082H205.62L217.3 581.135H227.38L240.38 591.097H245.94V587.269L251.02 583.381H282.5H1182.12L1191.72 590.976H1203.92V579.782H1231.38L1239.6 586.086H1251.86L1261.24 578.889H1286.42L1308 595.432H1322.9V586.496H1317.14V578.696H1338.9H1384.96L1398.4 568.058H1419.4H1439.36V671.963H0V576.124Z" fill="#03294A"/>
<g style="mix-blend-mode:multiply">
<path d="M1439.36 669.562H0V672.955H1439.36V669.562Z" fill="#AFAED2"/>
</g>
<g style="mix-blend-mode:multiply" opacity="0.8">
<path d="M1439.36 667.961H1179.32L1439.36 707.12V667.961Z" fill="#AFAED2"/>
</g>
<g style="mix-blend-mode:multiply" opacity="0.5">
<path d="M256.16 667.961H0V706.541L256.16 667.961Z" fill="#AFAED2"/>
</g>
<g style="mix-blend-mode:multiply" opacity="0.5">
<path d="M1427.58 708.183V705.466L1178.46 667.961H947.48L1214.56 708.183H1427.58Z" fill="#AFAED2"/>
</g>
<path opacity="0.1" d="M1134.86 457.025C1111.52 447.365 1081.54 442.874 1056.54 438.514C1025.94 433.189 995.94 429.362 981.18 407.53C968.24 388.379 941.96 373.056 915.18 364.06C901.18 359.375 885 355.052 873.78 347.046C863.18 339.487 853.98 330.298 844.06 322.365C836.198 316.106 827.553 310.22 818.2 304.76H777.06C788.92 314.915 798.18 328.741 805.06 337.29C819.44 354.968 825.06 378.647 850.88 387.449C880.06 397.363 915 395.262 931.2 419.364C945.86 441.195 955.2 458.692 988.78 466.106C1006.54 470.018 1025.18 469.668 1042.66 473.484C1062.32 477.782 1076.4 487.249 1095.54 492.635C1107.8 496.088 1121.34 495.231 1134.8 494.663L1134.86 457.025Z" fill="white"/>
<defs>
<linearGradient id="paint0_linear_4002_10434" x1="719.68" y1="631.074" x2="719.68" y2="-78.4404" gradientUnits="userSpaceOnUse">
<stop stop-color="#F1E2DD"/>
<stop offset="0.5" stop-color="#DEC1C6"/>
<stop offset="1" stop-color="#E74C3C" stop-opacity="0.7"/>
</linearGradient>
</defs>
</svg>
