<svg width="99" height="118" viewBox="0 0 99 118" fill="none" xmlns="http://www.w3.org/2000/svg">
<path d="M38.7082 37.3244L57.4538 69.7261C57.7791 70.2884 57.9503 70.9262 57.9503 71.5755C57.9503 72.2248 57.7791 72.8626 57.4538 73.4249L52.9268 81.2507C52.6016 81.813 52.1338 82.2799 51.5705 82.6045C51.0072 82.9291 50.3682 83.1 49.7177 83.1C49.0673 83.1 48.4283 82.9291 47.865 82.6045C47.3017 82.2799 46.8339 81.813 46.5087 81.2507L25.501 44.93L4.49649 8.61232C4.16912 8.05008 3.99618 7.41157 3.99512 6.76127C3.99407 6.11097 4.16494 5.4719 4.49048 4.9086C4.81603 4.3453 5.28471 3.87772 5.84922 3.55307C6.41373 3.22842 7.05406 3.05819 7.70557 3.05958H16.7596C17.4087 3.05819 18.0468 3.22703 18.61 3.54917C19.1732 3.87132 19.6417 4.33548 19.9687 4.8952L38.7082 37.3244Z" fill="#E13153"/>
<path d="M94.939 8.61544L73.9313 44.9331L66.9278 57.0421C66.6025 57.6043 66.1347 58.0712 65.5714 58.3958C65.0081 58.7204 64.3692 58.8913 63.7187 58.8913C63.0683 58.8913 62.4293 58.7204 61.866 58.3958C61.3027 58.0712 60.8349 57.6043 60.5096 57.0421L55.5658 48.5003L72.169 19.8005C72.7106 19.7836 73.2352 19.608 73.6774 19.2954C74.1196 18.9828 74.4598 18.5471 74.6555 18.0427C74.8512 17.5384 74.8937 16.9876 74.7778 16.4593C74.6618 15.9309 74.3926 15.4484 74.0036 15.0718C73.6146 14.6953 73.1231 14.4414 72.5905 14.3419C72.0579 14.2424 71.5077 14.3017 71.0086 14.5124C70.5096 14.7231 70.0837 15.0758 69.7842 15.5266C69.4847 15.9774 69.3249 16.5062 69.3246 17.047C69.3248 17.5047 69.4374 17.9554 69.6526 18.3595L53.8923 45.6062L46.5025 32.8303L46.2941 32.4693L53.6379 19.8005C54.2377 19.7822 54.8152 19.5691 55.2828 19.1936C55.7503 18.8181 56.0825 18.3006 56.2288 17.7197C56.3751 17.1388 56.3277 16.5261 56.0936 15.9745C55.8596 15.4229 55.4517 14.9626 54.9319 14.6633C54.412 14.364 53.8086 14.242 53.2131 14.316C52.6175 14.3899 52.0624 14.6557 51.6319 15.0729C51.2013 15.4902 50.9189 16.0363 50.8273 16.6283C50.7358 17.2203 50.8401 17.8259 51.1246 18.3534L44.6329 29.5782L37.2431 16.8268C36.9178 16.265 36.7466 15.6277 36.7466 14.9789C36.7466 14.3301 36.9178 13.6928 37.2431 13.1311L38.2147 11.4454L41.9908 4.91668C42.318 4.35717 42.7866 3.89318 43.3497 3.57106C43.9129 3.24895 44.5508 3.07998 45.1999 3.08106H91.7299C92.378 3.08337 93.0141 3.25516 93.575 3.57931C94.1358 3.90346 94.6018 4.36865 94.9264 4.92853C95.2511 5.48841 95.4231 6.12343 95.4253 6.77032C95.4275 7.41721 95.2598 8.05338 94.939 8.61544Z" fill="#E13153"/>
<path d="M25.3638 112.193H21.978L17.325 98.2965H20.295L23.6808 108.977L27.0468 98.2965H30.0366L25.3638 112.193Z" fill="#E13153"/>
<path d="M39.7873 106.773V98.2965H42.5197V112.193H40.4407L34.5007 103.696V112.193H31.7683V98.2965H33.8473L39.7873 106.773Z" fill="#E13153"/>
<path d="M46.8925 110.386C45.5263 109.016 44.8531 107.289 44.8531 105.245C44.8531 103.18 45.5263 101.473 46.8925 100.103C48.2587 98.7134 49.9813 98.0186 52.0603 98.0186C53.3077 98.0186 54.4759 98.3163 55.5451 98.9119C56.5945 99.4876 57.4261 100.282 58.0201 101.294L55.6639 102.664C54.9313 101.334 53.7235 100.679 52.0603 100.679C50.7139 100.679 49.6249 101.096 48.7933 101.949C47.9815 102.803 47.5657 103.915 47.5657 105.245C47.5657 106.575 47.9815 107.667 48.7933 108.52C49.6249 109.374 50.7139 109.791 52.0603 109.791C52.8523 109.791 53.5651 109.612 54.2185 109.255C54.8521 108.917 55.3273 108.441 55.6639 107.825L58.0201 109.195C57.4261 110.208 56.5945 111.002 55.5451 111.577C54.4759 112.173 53.3077 112.471 52.0603 112.471C49.9813 112.471 48.2587 111.776 46.8925 110.386Z" fill="#E13153"/>
<path d="M61.3618 111.558C60.4312 110.942 59.7779 110.108 59.3819 109.036L61.7183 107.667C62.2528 109.076 63.3221 109.791 64.9061 109.791C66.3911 109.791 67.1236 109.294 67.1236 108.322C67.1236 107.825 66.9058 107.448 66.4702 107.19C66.0346 106.912 65.2625 106.614 64.1339 106.297C62.926 105.92 61.9559 105.503 61.2629 105.006C60.3917 104.351 59.9561 103.398 59.9561 102.148C59.9561 100.877 60.3917 99.8846 61.2826 99.1501C62.1736 98.3957 63.2626 98.0186 64.5101 98.0186C66.8069 98.0186 68.4503 99.0509 69.4601 101.135L67.1632 102.465C66.6088 101.274 65.7178 100.679 64.5101 100.679C63.9557 100.679 63.5201 100.818 63.1834 101.076C62.8468 101.334 62.6884 101.651 62.6884 102.068C62.6884 102.505 62.8666 102.862 63.223 103.14C63.619 103.418 64.312 103.716 65.3218 104.014L66.2723 104.331C66.4505 104.391 66.7474 104.49 67.1632 104.669C67.5592 104.808 67.8563 104.947 68.0345 105.086C68.2919 105.245 68.5294 105.423 68.7472 105.622C69.0245 105.88 69.2225 106.098 69.3413 106.317C69.6779 106.872 69.8561 107.528 69.8561 108.282C69.8561 109.572 69.3808 110.585 68.4502 111.339C67.5196 112.094 66.3119 112.471 64.8269 112.471C63.4607 112.471 62.3122 112.173 61.3618 111.558Z" fill="#E13153"/>
<path d="M72.876 111.558C71.9454 110.942 71.292 110.108 70.896 109.036L73.2324 107.667C73.767 109.076 74.8362 109.791 76.4202 109.791C77.9052 109.791 78.6378 109.294 78.6378 108.322C78.6378 107.825 78.42 107.448 77.9844 107.19C77.5488 106.912 76.7766 106.614 75.648 106.297C74.4402 105.92 73.47 105.503 72.777 105.006C71.9058 104.351 71.4702 103.398 71.4702 102.148C71.4702 100.877 71.9058 99.8846 72.7968 99.1501C73.6878 98.3957 74.7768 98.0186 76.0242 98.0186C78.321 98.0186 79.9644 99.0509 80.9742 101.135L78.6774 102.465C78.123 101.274 77.232 100.679 76.0242 100.679C75.4698 100.679 75.0342 100.818 74.6976 101.076C74.361 101.334 74.2026 101.651 74.2026 102.068C74.2026 102.505 74.3808 102.862 74.7372 103.14C75.1332 103.418 75.8262 103.716 76.836 104.014L77.7864 104.331C77.9646 104.391 78.2616 104.49 78.6774 104.669C79.0734 104.808 79.3704 104.947 79.5486 105.086C79.806 105.245 80.0436 105.423 80.2614 105.622C80.5386 105.88 80.7366 106.098 80.8554 106.317C81.192 106.872 81.3702 107.528 81.3702 108.282C81.3702 109.572 80.895 110.585 79.9644 111.339C79.0338 112.094 77.826 112.471 76.341 112.471C74.9748 112.471 73.8264 112.173 72.876 111.558Z" fill="#E13153"/>
</svg>
