<svg width="132" height="51" viewBox="0 0 132 51" fill="none" xmlns="http://www.w3.org/2000/svg">
<path d="M18.0243 22.5344L27.654 39.1616C27.8211 39.4501 27.9091 39.7774 27.9091 40.1106C27.9091 40.4438 27.8211 40.7711 27.654 41.0596L25.3285 45.0755C25.1614 45.3641 24.9211 45.6036 24.6317 45.7702C24.3423 45.9368 24.0141 46.0245 23.68 46.0245C23.3458 46.0245 23.0176 45.9368 22.7282 45.7702C22.4388 45.6036 22.1985 45.3641 22.0314 45.0755L11.2397 26.4373L0.449455 7.80061C0.281282 7.51209 0.192439 7.18443 0.191897 6.85072C0.191355 6.51702 0.279132 6.18908 0.446367 5.90002C0.613601 5.61096 0.854371 5.37101 1.14436 5.20441C1.43435 5.03782 1.7633 4.95046 2.09798 4.95118H6.74912C7.08257 4.95047 7.41036 5.0371 7.69967 5.20242C7.98899 5.36773 8.22968 5.60592 8.39764 5.89314L18.0243 22.5344Z" fill="#E13153"/>
<path d="M46.9105 7.80193L36.1187 26.4386L32.5209 32.6524C32.3538 32.9409 32.1135 33.1805 31.8242 33.3471C31.5348 33.5137 31.2065 33.6014 30.8724 33.6014C30.5382 33.6014 30.21 33.5137 29.9206 33.3471C29.6312 33.1805 29.3909 32.9409 29.2239 32.6524L26.6842 28.2691L35.2133 13.5416C35.4916 13.533 35.7611 13.4428 35.9883 13.2824C36.2154 13.122 36.3902 12.8984 36.4907 12.6396C36.5912 12.3808 36.6131 12.0982 36.5535 11.827C36.494 11.5559 36.3556 11.3083 36.1558 11.1151C35.956 10.9218 35.7035 10.7916 35.4299 10.7405C35.1563 10.6895 34.8737 10.7199 34.6173 10.828C34.3609 10.9361 34.1421 11.1171 33.9883 11.3484C33.8344 11.5797 33.7523 11.8511 33.7522 12.1287C33.7523 12.3635 33.8101 12.5948 33.9207 12.8022L25.8245 26.784L22.0283 20.2279L21.9212 20.0427L25.6938 13.5416C26.0019 13.5322 26.2986 13.4229 26.5388 13.2302C26.779 13.0375 26.9496 12.772 27.0248 12.4738C27.0999 12.1757 27.0755 11.8613 26.9553 11.5783C26.8351 11.2952 26.6256 11.059 26.3585 10.9054C26.0915 10.7518 25.7815 10.6892 25.4756 10.7272C25.1696 10.7651 24.8845 10.9015 24.6633 11.1156C24.4421 11.3298 24.297 11.61 24.25 11.9138C24.2029 12.2176 24.2566 12.5284 24.4027 12.799L21.0678 18.5591L17.2717 12.0156C17.1046 11.7274 17.0166 11.4003 17.0166 11.0674C17.0166 10.7345 17.1046 10.4074 17.2717 10.1191L17.7708 9.25411L19.7106 5.90388C19.8787 5.61676 20.1194 5.37866 20.4087 5.21337C20.698 5.04807 21.0257 4.96136 21.3591 4.96192H45.2619C45.5949 4.9631 45.9217 5.05126 46.2098 5.2176C46.4979 5.38394 46.7373 5.62265 46.904 5.90996C47.0708 6.19727 47.1592 6.52313 47.1603 6.85509C47.1614 7.18704 47.0753 7.5135 46.9105 7.80193Z" fill="#E13153"/>
<path d="M50.6768 39.4032L51.0911 39.1613C51.2656 39.762 51.7426 40.1153 52.4814 40.1153C53.2202 40.1153 53.6236 39.7701 53.6236 39.2456C53.6309 39.1347 53.6097 39.0239 53.562 38.9235C53.5143 38.8231 53.4416 38.7366 53.351 38.672C53.0656 38.4993 52.7585 38.3649 52.4378 38.2725C52.0924 38.1737 51.758 38.0398 51.44 37.8729C51.2696 37.7783 51.1286 37.6387 51.0325 37.4694C50.9363 37.3002 50.8887 37.1078 50.8948 36.9134C50.8872 36.7302 50.9218 36.5478 50.996 36.38C51.0702 36.2123 51.182 36.0637 51.3228 35.9458C51.6202 35.7005 51.9976 35.5728 52.3833 35.587C52.7234 35.583 53.057 35.6802 53.3415 35.8661C53.626 36.052 53.8486 36.3182 53.9807 36.6307L53.5718 36.8564C53.4872 36.6128 53.3255 36.4033 53.1112 36.2592C52.8969 36.115 52.6414 36.0442 52.3833 36.0572C51.7808 36.0572 51.3801 36.3671 51.3801 36.8917C51.3714 36.9959 51.3896 37.1006 51.433 37.1957C51.4765 37.2909 51.5436 37.3734 51.6281 37.4353C51.8827 37.5942 52.1578 37.7177 52.446 37.8022L52.8194 37.9327C52.9328 37.9663 53.0439 38.0072 53.152 38.055C53.2648 38.0952 53.3735 38.1462 53.4764 38.2072C53.6597 38.3066 53.8181 38.446 53.9398 38.615C54.0914 38.8723 54.1471 39.1747 54.0972 39.469C54.0474 39.7633 53.8951 40.0306 53.6672 40.2241C53.3272 40.4787 52.9089 40.6075 52.4841 40.5883C51.5873 40.5829 50.9221 40.1425 50.6768 39.4032Z" fill="#E13153"/>
<path d="M59.8503 38.3573V40.51H59.4005V38.3573C59.4005 37.7566 59.0624 37.4168 58.5554 37.4168C57.9829 37.4168 57.5958 37.7892 57.5958 38.5965V40.4992H57.1297V38.3573C57.1297 37.7484 56.8189 37.4168 56.3119 37.4168C55.7667 37.4168 55.3141 37.7974 55.3141 38.5965V40.4992H54.8671V37.0472H55.3114V37.5527C55.4186 37.3686 55.5737 37.2167 55.7604 37.1134C55.9471 37.01 56.1584 36.959 56.3718 36.9656C56.5907 36.9499 56.809 37.0018 56.9973 37.1141C57.1855 37.2264 57.3345 37.3938 57.4241 37.5935C57.5331 37.3947 57.696 37.2305 57.894 37.1195C58.0921 37.0085 58.3175 36.9552 58.5445 36.9656C59.3296 36.9684 59.8503 37.4984 59.8503 38.3573Z" fill="#E13153"/>
<path d="M63.7097 37.0505H64.165V40.5025H63.7097V39.8257C63.5669 40.0661 63.3615 40.2635 63.1153 40.397C62.8691 40.5305 62.5913 40.5951 62.3113 40.5841C62.0738 40.5895 61.8377 40.5457 61.6181 40.4554C61.3985 40.3651 61.2001 40.2303 61.0355 40.0595C60.7017 39.7153 60.5151 39.2553 60.5151 38.7765C60.5151 38.2978 60.7017 37.8377 61.0355 37.4936C61.1988 37.3242 61.3955 37.1901 61.6131 37.0999C61.8307 37.0096 62.0647 36.9651 62.3004 36.969C62.5804 36.9579 62.8582 37.0225 63.1044 37.156C63.3506 37.2895 63.556 37.4869 63.6988 37.7273L63.7097 37.0505ZM62.3467 40.1437C62.5264 40.1469 62.7049 40.1136 62.8712 40.0459C63.0376 39.9781 63.1884 39.8773 63.3145 39.7496C63.4428 39.6224 63.5439 39.4706 63.6119 39.3034C63.6798 39.1361 63.7131 38.9569 63.7097 38.7765C63.7097 38.4161 63.5661 38.0704 63.3105 37.8155C63.0549 37.5607 62.7082 37.4175 62.3467 37.4175C61.9852 37.4175 61.6385 37.5607 61.3829 37.8155C61.1273 38.0704 60.9837 38.4161 60.9837 38.7765C60.9812 38.9566 61.0146 39.1353 61.082 39.3023C61.1494 39.4694 61.2494 39.6214 61.3762 39.7496C61.5028 39.8774 61.6541 39.9782 61.8209 40.046C61.9877 40.1137 62.1666 40.147 62.3467 40.1437Z" fill="#E13153"/>
<path d="M65.591 37.6239C65.6891 37.4226 65.8453 37.2552 66.0397 37.1433C66.234 37.0313 66.4576 36.9801 66.6814 36.996V37.4363C66.0517 37.4363 65.591 37.7897 65.591 38.5834V40.5024H65.1249V37.0504H65.5801L65.591 37.6239Z" fill="#E13153"/>
<path d="M69.2139 37.4928H68.2162V39.583C68.2162 40.1756 68.5488 40.1266 69.2139 40.0995V40.5017C68.2434 40.6458 67.7609 40.3821 67.7609 39.583V37.4928H67.0331V37.0498H67.7609V36.2343L68.2162 36.0957V37.0606H69.2139V37.4928Z" fill="#E13153"/>
<path d="M72.5996 37.5126C72.9146 37.8633 73.0859 38.3194 73.0793 38.7901C73.0793 38.8391 73.0793 38.9152 73.063 39.0049H70.0316C70.0713 39.3318 70.2342 39.6314 70.4874 39.843C70.7405 40.0545 71.0649 40.162 71.3947 40.1438C71.6165 40.1566 71.8377 40.1087 72.0342 40.0052C72.2307 39.9017 72.3951 39.7466 72.5096 39.5567L72.9103 39.7904C72.7475 40.0428 72.5217 40.2487 72.255 40.3878C71.9884 40.5269 71.69 40.5946 71.3892 40.5841C71.1442 40.5939 70.8998 40.5537 70.671 40.4658C70.4423 40.3779 70.2339 40.2443 70.0589 40.0731C69.7316 39.7213 69.5498 39.2591 69.5498 38.7793C69.5498 38.2994 69.7316 37.8373 70.0589 37.4855C70.2277 37.314 70.4306 37.1795 70.6545 37.0906C70.8784 37.0017 71.1184 36.9603 71.3592 36.969C71.5938 36.9596 71.8275 37.0036 72.0424 37.0978C72.2574 37.192 72.4479 37.3339 72.5996 37.5126ZM70.0316 38.5618H72.6132C72.5846 38.2361 72.4337 37.9332 72.1907 37.7138C71.9644 37.5162 71.6736 37.4079 71.3728 37.4094C71.0442 37.3951 70.7224 37.5064 70.4732 37.7206C70.2239 37.9347 70.066 38.2356 70.0316 38.5618Z" fill="#E13153"/>
<path d="M74.2598 37.6239C74.3578 37.4226 74.5141 37.2552 74.7085 37.1433C74.9028 37.0313 75.1264 36.9801 75.3502 36.996V37.4363C74.7205 37.4363 74.2598 37.7897 74.2598 38.5834V40.5024H73.8046V37.0504H74.2598V37.6239Z" fill="#E13153"/>
<path d="M77.7765 38.5888V38.1484H80.2681V38.5888H77.7765Z" fill="#E13153"/>
<path d="M82.8276 39.4032L83.242 39.1613C83.4165 39.762 83.8935 40.1153 84.6323 40.1153C85.371 40.1153 85.7745 39.7701 85.7745 39.2456C85.7818 39.1347 85.7606 39.0239 85.7128 38.9235C85.6651 38.8231 85.5925 38.7366 85.5019 38.672C85.2165 38.4993 84.9094 38.3649 84.5887 38.2725C84.2432 38.1737 83.9089 38.0398 83.5909 37.8729C83.4205 37.7783 83.2795 37.6387 83.1833 37.4694C83.0872 37.3002 83.0396 37.1078 83.0457 36.9134C83.0381 36.7302 83.0727 36.5478 83.1469 36.38C83.2211 36.2123 83.3329 36.0637 83.4737 35.9458C83.7711 35.7005 84.1485 35.5728 84.5341 35.587C84.8743 35.583 85.2079 35.6802 85.4924 35.8661C85.7769 36.052 85.9995 36.3182 86.1316 36.6307L85.7227 36.8564C85.638 36.6128 85.4764 36.4033 85.2621 36.2592C85.0477 36.115 84.7923 36.0442 84.5341 36.0572C83.9317 36.0572 83.531 36.3671 83.531 36.8917C83.5222 36.9959 83.5405 37.1006 83.5839 37.1957C83.6273 37.2909 83.6945 37.3734 83.779 37.4353C84.0336 37.5942 84.3087 37.7177 84.5968 37.8022L84.9703 37.9327C85.0837 37.9663 85.1948 38.0072 85.3029 38.055C85.4157 38.0952 85.5243 38.1462 85.6273 38.2072C85.8106 38.3066 85.969 38.446 86.0907 38.615C86.2422 38.8723 86.298 39.1747 86.2481 39.469C86.1983 39.7633 86.046 40.0306 85.8181 40.2241C85.4781 40.4787 85.0598 40.6075 84.635 40.5883C83.7409 40.5829 83.0757 40.1425 82.8276 39.4032Z" fill="#E13153"/>
<path d="M87.0123 36.2237C86.966 36.1772 86.9345 36.1181 86.9218 36.0538C86.9091 35.9896 86.9158 35.923 86.941 35.8625C86.9662 35.802 87.0089 35.7503 87.0635 35.714C87.1182 35.6776 87.1824 35.6582 87.2481 35.6582C87.3138 35.6582 87.378 35.6776 87.4327 35.714C87.4873 35.7503 87.53 35.802 87.5552 35.8625C87.5804 35.923 87.5871 35.9896 87.5744 36.0538C87.5617 36.1181 87.5302 36.1772 87.4839 36.2237C87.453 36.2546 87.4163 36.2792 87.3758 36.296C87.3353 36.3128 87.2919 36.3214 87.2481 36.3214C87.2043 36.3214 87.1609 36.3128 87.1204 36.296C87.0799 36.2792 87.0432 36.2546 87.0123 36.2237ZM87.0123 40.5019V37.05H87.4785V40.5019H87.0123Z" fill="#E13153"/>
<path d="M93.4266 38.3573V40.5101H92.9714V38.3573C92.9714 37.7566 92.6334 37.4169 92.1263 37.4169C91.5539 37.4169 91.164 37.7892 91.164 38.5965V40.4992H90.7088V38.3573C90.7088 37.7485 90.398 37.4169 89.891 37.4169C89.3458 37.4169 88.8932 37.7974 88.8932 38.5965V40.4992H88.438V37.0472H88.8932V37.5528C89.0004 37.3686 89.1556 37.2168 89.3422 37.1134C89.5289 37.01 89.7402 36.959 89.9537 36.9657C90.1754 36.9471 90.3974 36.9978 90.5889 37.1108C90.7804 37.2239 90.9319 37.3935 91.0223 37.5963C91.1313 37.3975 91.2941 37.2332 91.4922 37.1222C91.6903 37.0112 91.9157 36.9579 92.1427 36.9684C92.9087 36.9684 93.4266 37.4984 93.4266 38.3573Z" fill="#E13153"/>
<path d="M97.4282 37.4936C97.7639 37.8368 97.9518 38.2972 97.9518 38.7765C97.9518 39.2559 97.7639 39.7163 97.4282 40.0595C97.2659 40.2295 97.0699 40.3639 96.8525 40.4543C96.6352 40.5446 96.4015 40.5888 96.1661 40.5841C95.8864 40.5953 95.6089 40.5306 95.3632 40.3971C95.1174 40.2636 94.9125 40.0661 94.7704 39.8257V41.8915H94.3124V37.0506H94.7704V37.7274C94.9125 37.487 95.1174 37.2895 95.3632 37.156C95.6089 37.0224 95.8864 36.9578 96.1661 36.969C96.4015 36.9643 96.6352 37.0085 96.8525 37.0988C97.0699 37.1891 97.2659 37.3236 97.4282 37.4936ZM96.1334 40.1437C96.3131 40.1469 96.4915 40.1136 96.6579 40.0459C96.8242 39.9781 96.975 39.8773 97.1011 39.7496C97.2294 39.6224 97.3306 39.4706 97.3985 39.3034C97.4665 39.1361 97.4997 38.9569 97.4964 38.7765C97.4964 38.4161 97.3528 38.0704 97.0972 37.8155C96.8416 37.5607 96.4949 37.4175 96.1334 37.4175C95.7719 37.4175 95.4252 37.5607 95.1696 37.8155C94.914 38.0704 94.7704 38.4161 94.7704 38.7765C94.7679 38.9566 94.8013 39.1353 94.8687 39.3024C94.9361 39.4694 95.0361 39.6214 95.1629 39.7496C95.2895 39.8774 95.4408 39.9782 95.6076 40.046C95.7744 40.1137 95.9533 40.147 96.1334 40.1437Z" fill="#E13153"/>
<path d="M98.712 40.5025V35.4658H99.17V40.5025H98.712Z" fill="#E13153"/>
<path d="M102.976 37.5126C103.29 37.8635 103.46 38.3196 103.453 38.7901C103.453 38.839 103.453 38.9151 103.453 39.0048H100.402C100.442 39.3345 100.606 39.6366 100.862 39.8485C101.119 40.0605 101.447 40.1662 101.779 40.1437C102.001 40.1565 102.222 40.1086 102.419 40.0051C102.615 39.9016 102.78 39.7465 102.894 39.5566L103.295 39.7903C103.131 40.0429 102.905 40.2489 102.638 40.388C102.371 40.5272 102.072 40.5947 101.771 40.584C101.526 40.5938 101.282 40.5535 101.054 40.4656C100.826 40.3777 100.618 40.2441 100.443 40.073C100.116 39.7212 99.9342 39.259 99.9342 38.7792C99.9342 38.2993 100.116 37.8372 100.443 37.4854C100.613 37.3138 100.816 37.1793 101.04 37.0904C101.265 37.0015 101.505 36.9601 101.746 36.9689C101.979 36.9611 102.211 37.006 102.424 37.1001C102.637 37.1943 102.825 37.3353 102.976 37.5126ZM100.402 38.5617H102.984C102.955 38.236 102.804 37.9331 102.561 37.7137C102.335 37.5165 102.044 37.4083 101.744 37.4093C101.415 37.395 101.093 37.5063 100.844 37.7205C100.595 37.9346 100.437 38.2355 100.402 38.5617Z" fill="#E13153"/>
<path d="M104.636 37.6239C104.734 37.4226 104.89 37.2552 105.084 37.1433C105.279 37.0313 105.502 36.9801 105.726 36.996V37.4363C105.096 37.4363 104.636 37.7897 104.636 38.5834V40.5024H104.181V37.0504H104.636V37.6239Z" fill="#E13153"/>
<path d="M108.152 38.5888V38.1484H110.65V38.5888H108.152Z" fill="#E13153"/>
<path d="M116.939 39.1565C116.935 39.5122 116.792 39.8524 116.539 40.1039C116.287 40.3555 115.946 40.4984 115.589 40.5019H113.479V35.6719H115.431C115.775 35.6747 116.104 35.8122 116.347 36.0548C116.591 36.2973 116.729 36.6254 116.731 36.9684C116.74 37.1749 116.691 37.3797 116.591 37.5607C116.491 37.7417 116.344 37.8922 116.164 37.9959C116.395 38.0902 116.592 38.2512 116.73 38.458C116.868 38.6648 116.94 38.9081 116.939 39.1565ZM113.964 36.1258V37.8137H115.431C115.538 37.8149 115.644 37.794 115.743 37.7524C115.841 37.7107 115.93 37.6493 116.004 37.5718C116.082 37.4929 116.144 37.3991 116.186 37.2959C116.227 37.1927 116.248 37.0823 116.246 36.9711C116.248 36.8611 116.227 36.752 116.186 36.6501C116.144 36.5483 116.082 36.4559 116.004 36.3786C115.932 36.2986 115.843 36.2349 115.744 36.1917C115.646 36.1486 115.539 36.127 115.431 36.1285L113.964 36.1258ZM115.6 40.0453C115.714 40.0475 115.827 40.0259 115.933 39.9819C116.038 39.9379 116.132 39.8725 116.211 39.7898C116.373 39.6199 116.464 39.3941 116.464 39.1592C116.464 38.9243 116.373 38.6985 116.211 38.5286C116.134 38.4429 116.04 38.3745 115.935 38.3276C115.829 38.2808 115.715 38.2566 115.6 38.2568H113.964V40.0371L115.6 40.0453Z" fill="#E13153"/>
<path d="M120.537 37.5126C120.851 37.8635 121.021 38.3196 121.014 38.7901C121.014 38.839 121.014 38.9151 121.014 39.0048H117.963C118.003 39.3345 118.167 39.6366 118.423 39.8485C118.68 40.0605 119.008 40.1662 119.34 40.1437C119.562 40.1562 119.783 40.1081 119.979 40.0047C120.176 39.9012 120.34 39.7463 120.455 39.5566L120.856 39.7903C120.693 40.0429 120.466 40.2489 120.199 40.388C119.932 40.5272 119.633 40.5947 119.332 40.584C119.087 40.5938 118.843 40.5535 118.615 40.4656C118.387 40.3777 118.179 40.2441 118.004 40.073C117.677 39.7212 117.495 39.259 117.495 38.7792C117.495 38.2993 117.677 37.8372 118.004 37.4854C118.174 37.3138 118.377 37.1793 118.601 37.0904C118.826 37.0015 119.066 36.9601 119.307 36.9689C119.54 36.9615 119.772 37.0066 119.984 37.1007C120.197 37.1948 120.386 37.3356 120.537 37.5126ZM117.963 38.5617H120.545C120.516 38.236 120.366 37.9331 120.122 37.7137C119.896 37.5165 119.605 37.4083 119.305 37.4093C118.976 37.395 118.654 37.5063 118.405 37.7205C118.156 37.9346 117.998 38.2355 117.963 38.5617Z" fill="#E13153"/>
<path d="M123.462 37.4928H122.467V39.583C122.467 40.1756 122.797 40.1266 123.462 40.0995V40.5017C122.494 40.6458 122.009 40.3821 122.009 39.583V37.4928H121.281V37.0498H122.009V36.2343L122.467 36.0957V37.0606H123.462V37.4928Z" fill="#E13153"/>
<path d="M125.859 37.4928H124.861V39.583C124.861 40.1756 125.193 40.1266 125.859 40.0995V40.5017C124.888 40.6458 124.406 40.3821 124.406 39.583V37.4928H123.678V37.0498H124.406V36.2343L124.861 36.0957V37.0606H125.859V37.4928Z" fill="#E13153"/>
<path d="M129.249 37.5125C129.563 37.8642 129.733 38.3198 129.726 38.79C129.726 38.839 129.726 38.9151 129.713 39.0048H126.673C126.713 39.3347 126.878 39.6368 127.135 39.8487C127.392 40.0607 127.72 40.1662 128.053 40.1437C128.274 40.1563 128.495 40.1082 128.691 40.0047C128.887 39.9013 129.051 39.7463 129.165 39.5565L129.566 39.7903C129.403 40.0429 129.177 40.2489 128.91 40.388C128.644 40.5272 128.345 40.5947 128.044 40.584C127.8 40.5939 127.556 40.5537 127.327 40.4658C127.099 40.3779 126.891 40.2442 126.717 40.073C126.547 39.9033 126.414 39.7007 126.326 39.4777C126.238 39.2547 126.196 39.016 126.204 38.7765C126.197 38.5385 126.238 38.3015 126.325 38.0797C126.411 37.8579 126.542 37.6558 126.709 37.4854C126.878 37.3139 127.08 37.1794 127.304 37.0905C127.528 37.0016 127.768 36.9602 128.009 36.9689C128.243 36.9603 128.477 37.0047 128.692 37.0988C128.907 37.193 129.097 37.3344 129.249 37.5125ZM126.673 38.5617H129.255C129.227 38.2357 129.076 37.9325 128.832 37.7137C128.606 37.5157 128.315 37.4073 128.014 37.4093C127.686 37.395 127.364 37.5063 127.115 37.7204C126.866 37.9346 126.708 38.2355 126.673 38.5617Z" fill="#E13153"/>
<path d="M130.909 37.6241C131.007 37.4224 131.163 37.2545 131.357 37.1425C131.552 37.0305 131.776 36.9796 132 36.9963V37.4366C131.37 37.4366 130.909 37.79 130.909 38.5836V40.5026H130.451V37.0506H130.909V37.6241Z" fill="#E13153"/>
<path d="M57.8265 26.5931H54.8152L50.6768 14.2469H53.3183L56.3296 23.7359L59.3234 14.2469H61.9825L57.8265 26.5931Z" fill="#E13153"/>
<path d="M70.6549 21.7781V14.2469H73.0851V26.5931H71.236L65.9529 19.0443V26.5931H63.5227V14.2469H65.3718L70.6549 21.7781Z" fill="#E13153"/>
<path d="M76.9743 24.9881C75.7592 23.7711 75.1605 22.2367 75.1605 20.42C75.1605 18.5857 75.7592 17.0689 76.9743 15.8519C78.1894 14.6173 79.7215 14 81.5706 14C82.68 14 83.719 14.2646 84.67 14.7937C85.6033 15.3052 86.3429 16.0107 86.8712 16.9102L84.7756 18.1272C84.1241 16.9454 83.0498 16.3634 81.5706 16.3634C80.3731 16.3634 79.4045 16.7338 78.6649 17.4922C77.9429 18.2506 77.5731 19.2383 77.5731 20.42C77.5731 21.6017 77.9429 22.5718 78.6649 23.3302C79.4045 24.0886 80.3731 24.459 81.5706 24.459C82.275 24.459 82.9089 24.3002 83.4901 23.9828C84.0536 23.6829 84.4763 23.2596 84.7756 22.7129L86.8712 23.9299C86.3429 24.8294 85.6033 25.5349 84.67 26.0464C83.719 26.5755 82.68 26.84 81.5706 26.84C79.7215 26.84 78.1894 26.2227 76.9743 24.9881Z" fill="#E13153"/>
<path d="M89.8434 26.0287C89.0157 25.482 88.4346 24.7412 88.0824 23.7888L90.1604 22.5718C90.6358 23.824 91.5868 24.459 92.9956 24.459C94.3164 24.459 94.968 24.0181 94.968 23.1538C94.968 22.7129 94.7742 22.3778 94.3868 22.1485C93.9994 21.9016 93.3126 21.637 92.3088 21.3548C91.2346 21.0197 90.3717 20.6493 89.7553 20.2084C88.9805 19.6263 88.5931 18.7797 88.5931 17.6686C88.5931 16.5398 88.9805 15.6579 89.7729 15.0053C90.5654 14.3351 91.534 14 92.6434 14C94.6862 14 96.1478 14.9171 97.046 16.7691L95.0032 17.9508C94.5101 16.8925 93.7176 16.3634 92.6434 16.3634C92.1503 16.3634 91.7629 16.4869 91.4635 16.7162C91.1641 16.9454 91.0233 17.2276 91.0233 17.598C91.0233 17.9861 91.1818 18.3035 91.4987 18.5505C91.8509 18.7974 92.4673 19.0619 93.3654 19.3265L94.2107 19.6087C94.3692 19.6616 94.6334 19.7498 95.0032 19.9085C95.3554 20.032 95.6195 20.1555 95.778 20.2789C96.007 20.42 96.2183 20.5788 96.412 20.7551C96.6585 20.9844 96.8346 21.1784 96.9403 21.3724C97.2397 21.8663 97.3982 22.4483 97.3982 23.1185C97.3982 24.265 96.9755 25.1645 96.1478 25.8347C95.3202 26.5049 94.2459 26.84 92.9252 26.84C91.7101 26.84 90.6887 26.5755 89.8434 26.0287Z" fill="#E13153"/>
<path d="M100.084 26.0287C99.2565 25.482 98.6753 24.7412 98.3231 23.7888L100.401 22.5718C100.877 23.824 101.828 24.459 103.236 24.459C104.557 24.459 105.209 24.0181 105.209 23.1538C105.209 22.7129 105.015 22.3778 104.628 22.1485C104.24 21.9016 103.553 21.637 102.55 21.3548C101.475 21.0197 100.612 20.6493 99.9961 20.2084C99.2212 19.6263 98.8338 18.7797 98.8338 17.6686C98.8338 16.5398 99.2212 15.6579 100.014 15.0053C100.806 14.3351 101.775 14 102.884 14C104.927 14 106.389 14.9171 107.287 16.7691L105.244 17.9508C104.751 16.8925 103.958 16.3634 102.884 16.3634C102.391 16.3634 102.004 16.4869 101.704 16.7162C101.405 16.9454 101.264 17.2276 101.264 17.598C101.264 17.9861 101.423 18.3035 101.739 18.5505C102.092 18.7974 102.708 19.0619 103.606 19.3265L104.451 19.6087C104.61 19.6616 104.874 19.7498 105.244 19.9085C105.596 20.032 105.86 20.1555 106.019 20.2789C106.248 20.42 106.459 20.5788 106.653 20.7551C106.899 20.9844 107.075 21.1784 107.181 21.3724C107.48 21.8663 107.639 22.4483 107.639 23.1185C107.639 24.265 107.216 25.1645 106.389 25.8347C105.561 26.5049 104.487 26.84 103.166 26.84C101.951 26.84 100.929 26.5755 100.084 26.0287Z" fill="#E13153"/>
</svg>
