<svg width="40" height="40" viewBox="0 0 40 40" fill="none" xmlns="http://www.w3.org/2000/svg">
<path d="M28.9957 6.45667C28.6052 6.48888 28.2106 6.51706 27.8201 6.56135C27.5463 6.59356 27.2766 6.64992 27.0028 6.69421C26.9424 6.70629 26.882 6.71837 26.8257 6.73045C26.4834 6.78681 26.1412 6.83915 25.803 6.89552C25.5655 6.93578 25.3239 6.96799 25.0864 7.0163C24.728 7.0928 24.3778 7.22163 24.0154 7.25787C23.6853 7.29008 23.3793 7.40684 23.0652 7.47931C22.6425 7.57593 22.2157 7.64841 21.8171 7.82958C21.6883 7.88595 21.5434 7.90608 21.4065 7.94231C21.2978 7.9705 21.1931 8.00271 21.0884 8.03894C20.7663 8.14362 20.4281 8.19193 20.1221 8.36103C19.9289 8.46974 19.7034 8.52208 19.4941 8.59455C19.2324 8.68312 18.9626 8.75962 18.7009 8.86027C18.3144 9.00924 17.9319 9.16626 17.5494 9.33133C17.336 9.42393 17.1307 9.54472 16.9213 9.6494C16.5268 9.8507 16.1322 10.048 15.7417 10.2573C15.3793 10.4506 15.021 10.6559 14.6667 10.8653C14.3567 11.0505 14.0467 11.2357 13.7487 11.437C13.2535 11.7752 12.7623 12.1214 12.2752 12.4798C11.8967 12.7576 11.5102 13.0314 11.1599 13.3414C10.6526 13.7923 10.1615 14.2634 9.68637 14.7505C9.43675 15.0042 9.25558 15.3222 9.00998 15.5759C8.71607 15.8778 8.53892 16.2563 8.31749 16.5985C8.1202 16.8965 8.03163 17.2709 7.90682 17.6131C7.8424 17.7862 7.78201 17.9674 7.75785 18.1486C7.72967 18.3579 7.72564 18.5794 7.75383 18.7887C7.78201 19.0021 7.83837 19.2236 7.93098 19.4168C8.07189 19.7147 8.16449 20.0288 8.41009 20.2784C8.61139 20.4797 8.82881 20.6367 9.0905 20.7173C9.45286 20.826 9.81924 20.9145 10.2057 20.7857C10.3869 20.7253 10.5842 20.7052 10.7734 20.6689C10.9224 20.6408 11.0714 20.6086 11.2244 20.5804C11.4538 20.5401 11.6874 20.516 11.9169 20.4676C12.0739 20.4354 12.2269 20.375 12.3799 20.3267C12.4926 20.2905 12.5973 20.2422 12.71 20.21C12.8751 20.1657 13.0482 20.1375 13.2133 20.0932C13.5032 20.0167 13.789 19.9281 14.0789 19.8436C14.2118 19.8074 14.3446 19.7711 14.4775 19.7349C14.8962 19.6141 15.3149 19.4933 15.7336 19.3725C16.1805 19.2397 16.6274 19.1068 17.0743 18.9699C17.3964 18.8733 17.7185 18.7847 18.0366 18.676C18.2178 18.6156 18.3909 18.527 18.568 18.4505C18.6003 18.4385 18.6365 18.4304 18.6687 18.4224C18.8579 18.37 19.0512 18.3177 19.2404 18.2694C19.3894 18.2331 19.5383 18.2049 19.6833 18.1607C19.8242 18.1123 19.9611 18.0439 20.102 17.9875C20.1262 17.9795 20.1503 17.9674 20.1745 17.9634C20.5046 17.899 20.8388 17.8506 21.1649 17.7661C21.5152 17.6775 21.8534 17.5487 22.1996 17.444C22.3848 17.3876 22.5741 17.3474 22.7593 17.2991C22.9767 17.2427 23.1941 17.1904 23.4155 17.138C23.5846 17.0978 23.7537 17.0736 23.9188 17.0333C24.108 16.985 24.2932 16.9206 24.4824 16.8683C24.5388 16.8522 24.6032 16.8441 24.6636 16.8401C25.0662 16.7998 25.4688 16.7596 25.8715 16.7193C26.0929 16.6951 26.3143 16.675 26.5358 16.6468C26.6686 16.6307 26.7934 16.5824 26.9263 16.5703C27.4779 16.522 28.0295 16.4777 28.5811 16.4415C29.0521 16.4133 29.5232 16.3892 29.9942 16.3892C30.3002 16.3892 30.6143 16.4012 30.9122 16.4697C31.3269 16.5663 31.7335 16.7032 32.1321 16.8522C32.3093 16.9166 32.4542 17.0615 32.6193 17.1622C33.038 17.4279 33.3641 17.7782 33.6178 18.2009C33.7627 18.4425 33.8352 18.7122 33.8553 18.9941C33.8674 19.1833 33.8674 19.3766 33.8553 19.5658C33.8311 19.8838 33.7506 20.1858 33.6057 20.4717C33.2957 21.0836 32.8286 21.5668 32.3415 22.0338C32.0959 22.2713 31.8543 22.5169 31.5886 22.7344C31.3108 22.9598 31.0048 23.1571 30.7109 23.3665C30.578 23.4631 30.4532 23.5678 30.3203 23.6604C30.1553 23.7691 29.9822 23.8657 29.8131 23.9704C29.656 24.071 29.5071 24.1918 29.346 24.2884C29.2252 24.3609 29.0924 24.4052 28.9676 24.4736C28.8669 24.53 28.7783 24.6065 28.6777 24.6629C28.3838 24.8159 28.0899 24.9608 27.796 25.1138C27.6228 25.2024 27.4618 25.3111 27.2887 25.3916C26.9948 25.5245 26.6968 25.6412 26.3989 25.758C26.0526 25.8908 25.7064 26.0157 25.3601 26.1485C25.1951 26.2129 25.034 26.2935 24.8649 26.3579C24.6515 26.4384 24.4341 26.5109 24.2207 26.5874C23.959 26.68 23.7014 26.7847 23.4356 26.8692C23.182 26.9497 22.9203 27.0141 22.6667 27.0906C22.4211 27.1631 22.1755 27.2517 21.9258 27.3242C21.6521 27.4047 21.3783 27.4812 21.1045 27.5577C20.6697 27.6744 20.2308 27.7912 19.792 27.9079C19.4337 28.0046 19.0794 28.1012 18.721 28.1938C18.2218 28.3186 17.7226 28.4474 17.2193 28.5602C16.9656 28.6165 16.7039 28.6367 16.4463 28.681C16.0879 28.7373 15.7336 28.7977 15.3793 28.8541C14.9606 28.9225 14.5419 28.9789 14.1232 29.0554C13.9259 29.0916 13.7407 29.1762 13.5474 29.2124C13.3502 29.2486 13.1489 29.2567 12.9516 29.2768C12.6899 29.301 12.4282 29.3131 12.1705 29.3453C11.8323 29.3896 11.4981 29.4942 11.1599 29.4942C10.6124 29.4983 10.1011 29.6915 9.56156 29.7237C9.36831 29.7358 9.17908 29.7801 8.98583 29.7962C8.45035 29.8405 7.91487 29.8848 7.3794 29.921C7.18211 29.9331 6.97275 29.9532 6.84392 29.764C6.69495 29.5466 6.57014 29.3131 6.42923 29.0876C6.30039 28.8823 6.15545 28.681 6.03064 28.4716C5.90985 28.2703 5.80115 28.065 5.68439 27.8596C5.63205 27.767 5.55958 27.6825 5.51529 27.5859C5.31801 27.139 5.12073 26.6921 4.9315 26.2411C4.81072 25.9512 4.69396 25.6573 4.58525 25.3594C4.54097 25.2346 4.5007 25.1098 4.48057 24.9769C4.43226 24.6709 4.2994 24.3891 4.25511 24.0751C4.21082 23.7489 4.12627 23.4309 4.07393 23.1007C4.00146 22.6297 3.95717 22.1586 3.89276 21.6916C3.79613 20.979 3.83639 20.2663 3.84847 19.5577C3.8525 19.288 3.8847 19.0142 3.92094 18.7485C3.95718 18.4747 4.02159 18.2049 4.06991 17.9352C4.1464 17.5326 4.21887 17.13 4.29134 16.7274C4.2994 16.6871 4.30745 16.6468 4.31953 16.6066C4.40408 16.3288 4.4846 16.051 4.5772 15.7772C4.63357 15.6121 4.71006 15.4511 4.77448 15.286C4.85903 15.0646 4.93955 14.8391 5.03215 14.6177C5.13281 14.3721 5.24554 14.1305 5.35827 13.893C5.5636 13.4702 5.76894 13.0515 5.98635 12.6368C6.09506 12.4315 6.23597 12.2382 6.36883 12.045C6.56611 11.7671 6.77145 11.4934 6.97275 11.2196C7.18211 10.9337 7.3955 10.6519 7.60888 10.3701C7.65317 10.3137 7.70149 10.2614 7.7498 10.205C7.8585 10.0842 7.96318 9.95941 8.07592 9.84265C8.21281 9.70174 8.35775 9.56082 8.50269 9.42796C8.67179 9.27094 8.88517 9.1421 9.01401 8.9569C9.17908 8.71936 9.44883 8.61468 9.6139 8.40129C9.82326 8.13557 10.1252 7.99868 10.3708 7.78529C10.6365 7.55178 10.9345 7.35852 11.2203 7.15319C11.3129 7.08877 11.4096 7.03241 11.5062 6.97201C11.7437 6.82305 11.9732 6.66603 12.2148 6.52511C12.4282 6.4003 12.6536 6.29562 12.8751 6.17886C12.9556 6.13458 13.0281 6.07821 13.1126 6.03795C13.3059 5.94937 13.5032 5.86885 13.7004 5.7843C13.781 5.74807 13.8575 5.71183 13.938 5.6756C14.2077 5.55884 14.4775 5.44208 14.7472 5.32935C14.9405 5.24883 15.1297 5.16428 15.323 5.09583C15.48 5.03947 15.6451 4.9992 15.8061 4.95894C16.2168 4.85829 16.6274 4.76166 17.0341 4.66503C17.3924 4.58049 17.7467 4.49996 18.105 4.41541C18.1131 4.41139 18.1252 4.41139 18.1372 4.41139C18.5962 4.37515 19.0552 4.33087 19.5142 4.30671C20.0778 4.27853 20.6375 4.24632 21.2011 4.25034C21.7004 4.25034 22.2036 4.2906 22.7029 4.32281C23.0048 4.34294 23.3068 4.36307 23.6007 4.41541C23.9429 4.47581 24.2731 4.57243 24.6113 4.65296C24.7683 4.69322 24.9293 4.72543 25.0864 4.76971C25.3803 4.84621 25.6782 4.92271 25.9721 5.01128C26.3304 5.11999 26.6888 5.22467 27.0431 5.35351C27.2726 5.43403 27.49 5.54676 27.7154 5.64741C27.9047 5.73196 28.1019 5.80443 28.2791 5.90911C28.5247 6.05405 28.7944 6.17081 28.9957 6.3842C29.0038 6.41641 28.9998 6.43654 28.9957 6.45667Z" fill="url(#paint0_linear_4448_10063)"/>
<path d="M11.4094 33.6081C11.5302 33.5839 11.647 33.5638 11.7677 33.5396C12.0133 33.4873 12.2549 33.435 12.5005 33.3826C12.6897 33.3424 12.879 33.2981 13.0722 33.2659C13.4789 33.1974 13.8855 33.133 14.2921 33.0645C14.6827 33.0001 15.0732 32.9478 15.4557 32.8713C15.7697 32.8069 16.0757 32.7143 16.3898 32.6378C16.587 32.5895 16.7883 32.5653 16.9856 32.517C17.1829 32.4687 17.3762 32.4043 17.5734 32.3519C17.7144 32.3117 17.8593 32.2794 18.0002 32.2392C18.125 32.203 18.2498 32.1506 18.3746 32.1063C18.423 32.0902 18.4672 32.0701 18.5156 32.058C18.7813 31.9976 19.047 31.9453 19.3087 31.8849C19.4617 31.8527 19.6187 31.8164 19.7717 31.7762C19.9609 31.7279 20.1461 31.6675 20.3314 31.6151C20.4924 31.5708 20.6534 31.5346 20.8145 31.4863C21.0963 31.4058 21.3822 31.3212 21.66 31.2286C22.0586 31.0998 22.4572 30.9629 22.8517 30.822C23.1456 30.7173 23.4355 30.5925 23.7294 30.4838C23.8623 30.4355 24.0032 30.4033 24.1361 30.359C24.434 30.2543 24.7319 30.1496 25.0299 30.0409C25.2593 29.9604 25.4848 29.8799 25.7143 29.7993C25.8029 29.7671 25.8874 29.739 25.972 29.7027C26.3142 29.5578 26.6564 29.4048 27.0027 29.2639C27.1718 29.1954 27.3529 29.1632 27.522 29.0907C27.7998 28.97 28.0736 28.8331 28.3474 28.7042C28.6333 28.5714 28.9231 28.4425 29.209 28.3097C29.4908 28.1808 29.7727 28.052 30.0505 27.9191C30.3524 27.7742 30.6544 27.6293 30.9523 27.4803C31.1174 27.3957 31.2784 27.3031 31.4435 27.2146C31.5965 27.134 31.7535 27.0656 31.9065 26.981C32.0515 26.9046 32.1843 26.8079 32.3252 26.7314C32.5708 26.5986 32.8245 26.4778 33.0741 26.3449C33.1385 26.3087 33.1868 26.2483 33.2512 26.2121C33.3358 26.1597 33.4324 26.1275 33.517 26.0792C33.8109 25.9141 34.1008 25.745 34.3947 25.58C34.6201 25.4511 34.8456 25.3263 35.063 25.1894C35.3086 25.0404 35.5461 24.8794 35.7837 24.7264C35.8159 24.7063 35.8521 24.6942 35.9045 24.666C35.8642 24.823 35.8441 24.9559 35.7998 25.0847C35.6548 25.5155 35.5139 25.9463 35.3489 26.3691C35.2563 26.6066 35.1073 26.82 35.0066 27.0535C34.7812 27.5729 34.4792 28.0439 34.1571 28.507C33.9357 28.825 33.682 29.1189 33.4485 29.4249C33.2955 29.6222 33.1586 29.8316 33.0016 30.0248C32.5426 30.5885 32.0474 31.1159 31.4797 31.5749C31.1415 31.8487 30.8194 32.1426 30.4732 32.4043C30.0464 32.7304 29.6076 33.0404 29.1607 33.3464C28.9231 33.5114 28.6413 33.6161 28.4239 33.8013C28.2186 33.9745 27.9931 34.0872 27.7676 34.212C27.4697 34.3771 27.1718 34.5421 26.8658 34.6911C26.6363 34.8038 26.3907 34.8763 26.1652 34.989C25.7989 35.1702 25.4083 35.2668 25.0258 35.3876C24.7762 35.4682 24.5346 35.5608 24.285 35.6373C24.1119 35.6896 23.9307 35.7137 23.7495 35.754C23.4717 35.8144 23.198 35.8828 22.9202 35.9352C22.7108 35.9754 22.4974 36.0077 22.284 36.0278C21.9418 36.064 21.6036 36.1043 21.2614 36.1123C20.5327 36.1244 19.8039 36.1325 19.0752 36.1003C18.6283 36.0801 18.1814 35.9956 17.7385 35.9312C17.3842 35.8788 17.0299 35.8225 16.6837 35.7419C16.3253 35.6574 15.9791 35.5366 15.6248 35.4359C15.4396 35.3836 15.2463 35.3594 15.0611 35.3031C14.6827 35.1903 14.2881 35.13 13.9298 34.9448C13.6882 34.8199 13.4144 34.7555 13.1688 34.6347C12.7421 34.4254 12.3234 34.2039 11.9046 33.9745C11.7355 33.8819 11.5785 33.7651 11.4175 33.6604C11.4135 33.6483 11.4094 33.6282 11.4094 33.6081Z" fill="url(#paint1_linear_4448_10063)"/>
<path d="M35.9648 14.7253C35.7273 14.6005 35.4938 14.4636 35.2482 14.3508C34.9784 14.226 34.6966 14.1173 34.4228 14.0046C34.1812 13.9039 33.9397 13.7993 33.6941 13.6986C33.5693 13.6503 33.4445 13.606 33.3156 13.5738C32.9009 13.4691 32.4822 13.3805 32.0675 13.2678C31.6689 13.1591 31.2502 13.1551 30.8476 13.0746C30.0303 12.9095 29.2009 12.994 28.3756 12.9699C27.6428 12.9497 26.906 12.9699 26.1733 12.994C25.9075 13.0021 25.6458 13.0866 25.3801 13.1349C25.3439 13.143 25.3117 13.1551 25.2754 13.1591C24.9413 13.2034 24.6031 13.2396 24.2689 13.2879C24.1441 13.304 24.0193 13.3443 23.8945 13.3685C23.4234 13.4651 22.9483 13.5496 22.4813 13.6543C22.1431 13.7268 21.7968 13.7912 21.4788 13.92C21.1406 14.0529 20.7782 14.0891 20.44 14.1978C20.1139 14.3025 19.7999 14.4354 19.4778 14.5481C19.2644 14.6246 19.0389 14.6729 18.8255 14.7494C18.5477 14.8461 18.278 14.9628 18.0042 15.0635C17.8593 15.1198 17.7063 15.1641 17.5613 15.2124C17.4808 15.2406 17.3963 15.2648 17.3198 15.301C17.05 15.4178 16.7883 15.5426 16.5186 15.6553C16.3495 15.7278 16.1723 15.7801 16.0032 15.8526C15.7657 15.9573 15.5322 16.07 15.2946 16.1787C14.9645 16.3317 14.6303 16.4807 14.3002 16.6296C14.1834 16.682 14.0707 16.7424 13.9539 16.7867C13.9177 16.8028 13.8694 16.7867 13.8291 16.7826C13.8372 16.7383 13.8331 16.686 13.8573 16.6578C14.0707 16.4203 14.2921 16.1908 14.5095 15.9532C14.582 15.8767 14.6464 15.7882 14.7229 15.7117C14.896 15.5426 15.0692 15.3735 15.2584 15.2165C15.6248 14.9145 15.9952 14.6166 16.3696 14.3227C16.6393 14.1133 16.9091 13.8999 17.1869 13.7026C17.3842 13.5617 17.5976 13.4409 17.8069 13.3161C18.133 13.1188 18.4914 12.9618 18.7853 12.7203C19.1154 12.4465 19.5301 12.3458 19.8764 12.1123C20.0898 11.9674 20.3635 11.915 20.6091 11.8144C20.8708 11.7057 21.1285 11.5849 21.3862 11.4762C21.4868 11.4319 21.5915 11.3957 21.7002 11.3634C21.9458 11.291 22.1914 11.2306 22.433 11.1501C22.5578 11.1098 22.6705 11.0454 22.7913 10.993C22.8155 10.981 22.8356 10.9689 22.8597 10.9649C23.2744 10.8763 23.6851 10.7635 24.1038 10.7112C24.6675 10.6428 25.2352 10.6186 25.8028 10.5743C26.0887 10.5542 26.3746 10.5099 26.6564 10.5139C27.1154 10.518 27.5743 10.5542 28.0333 10.5703C28.2226 10.5783 28.4118 10.5622 28.601 10.5824C29.0157 10.6226 29.4264 10.6709 29.837 10.7354C30.2236 10.7958 30.6101 10.8723 30.9925 10.9649C31.1979 11.0132 31.3911 11.1178 31.5884 11.1903C32.0071 11.3433 32.3896 11.5527 32.7882 11.75C33.2552 11.9794 33.6619 12.2935 34.0766 12.5874C34.4067 12.8249 34.7691 13.0464 35.0106 13.3966C35.063 13.4731 35.1717 13.5054 35.2321 13.5778C35.4575 13.8556 35.679 14.1334 35.8883 14.4233C35.9407 14.4958 35.9608 14.5964 35.993 14.685C35.989 14.7011 35.9769 14.7132 35.9648 14.7253Z" fill="url(#paint2_linear_4448_10063)"/>
<defs>
<linearGradient id="paint0_linear_4448_10063" x1="-2.97885" y1="18.577" x2="31.1818" y2="13.4168" gradientUnits="userSpaceOnUse">
<stop stop-color="#600100"/>
<stop offset="1" stop-color="#BF1F2A"/>
</linearGradient>
<linearGradient id="paint1_linear_4448_10063" x1="5.85652" y1="31.0583" x2="32.3337" y2="23.7474" gradientUnits="userSpaceOnUse">
<stop stop-color="#600100"/>
<stop offset="1" stop-color="#BF1F2A"/>
</linearGradient>
<linearGradient id="paint2_linear_4448_10063" x1="8.80465" y1="14.0176" x2="30.1534" y2="4.28676" gradientUnits="userSpaceOnUse">
<stop stop-color="#600100"/>
<stop offset="1" stop-color="#BF1F2A"/>
</linearGradient>
</defs>
</svg>
