<svg width="114" height="102" viewBox="0 0 114 102" fill="none" xmlns="http://www.w3.org/2000/svg">
<path d="M75.6967 4.78319C74.8502 4.853 73.995 4.91409 73.1484 5.01009C72.555 5.07991 71.9703 5.20209 71.3768 5.29808C71.2459 5.32427 71.115 5.35045 70.9928 5.37663C70.251 5.49881 69.5092 5.61226 68.7762 5.73444C68.2613 5.82171 67.7376 5.89153 67.2228 5.99625C66.446 6.16207 65.6868 6.44133 64.9013 6.51987C64.1857 6.58969 63.5225 6.84278 62.8418 6.99986C61.9254 7.20931 61.0003 7.3664 60.1364 7.75912C59.8571 7.8813 59.5429 7.92494 59.2462 8.00348C59.0106 8.06457 58.7837 8.13439 58.5567 8.21293C57.8586 8.43984 57.1255 8.54456 56.4622 8.9111C56.0433 9.14673 55.5546 9.26018 55.1008 9.41727C54.5336 9.60926 53.9488 9.77508 53.3816 9.99326C52.5438 10.3162 51.7147 10.6565 50.8856 11.0143C50.4231 11.215 49.978 11.4769 49.5242 11.7038C48.669 12.1401 47.8137 12.5677 46.9672 13.0216C46.1817 13.4405 45.405 13.8855 44.637 14.3393C43.9651 14.7408 43.2931 15.1422 42.6473 15.5786C41.5738 16.3117 40.5091 17.0622 39.4532 17.8389C38.6328 18.4411 37.795 19.0345 37.0358 19.7065C35.9361 20.6839 34.8714 21.705 33.8416 22.761C33.3006 23.3108 32.9078 24.0002 32.3755 24.55C31.7384 25.2046 31.3544 26.0249 30.8744 26.7667C30.4468 27.4125 30.2548 28.2241 29.9843 28.9659C29.8446 29.3412 29.7137 29.7339 29.6614 30.1266C29.6003 30.5805 29.5915 31.0604 29.6526 31.5142C29.7137 31.9768 29.8359 32.4568 30.0366 32.8757C30.3421 33.5215 30.5428 34.2022 31.0752 34.7433C31.5115 35.1796 31.9828 35.52 32.55 35.6945C33.3355 35.9302 34.1296 36.1222 34.9674 35.8429C35.3602 35.712 35.7878 35.6683 36.198 35.5898C36.5209 35.5287 36.8438 35.4589 37.1754 35.3978C37.6728 35.3105 38.179 35.2582 38.6764 35.1534C39.0168 35.0836 39.3484 34.9527 39.6801 34.848C39.9244 34.7695 40.1513 34.6647 40.3957 34.5949C40.7535 34.4989 41.1288 34.4378 41.4866 34.3418C42.1149 34.176 42.7345 33.984 43.3629 33.8007C43.6509 33.7222 43.9389 33.6437 44.2269 33.5651C45.1345 33.3033 46.0421 33.0415 46.9497 32.7797C47.9184 32.4917 48.8871 32.2037 49.8558 31.907C50.554 31.6975 51.2522 31.5055 51.9416 31.2699C52.3343 31.139 52.7096 30.947 53.0936 30.7812C53.1634 30.755 53.242 30.7375 53.3118 30.7201C53.7219 30.6066 54.1408 30.4932 54.551 30.3885C54.8739 30.3099 55.1968 30.2488 55.511 30.1528C55.8164 30.0481 56.1132 29.8997 56.4186 29.7776C56.471 29.7601 56.5233 29.7339 56.5757 29.7252C57.2913 29.5856 58.0157 29.4808 58.7226 29.2976C59.4818 29.1056 60.2149 28.8263 60.9654 28.5994C61.3669 28.4772 61.777 28.39 62.1785 28.2852C62.6498 28.163 63.121 28.0496 63.601 27.9361C63.9675 27.8489 64.3341 27.7965 64.6919 27.7092C65.1021 27.6045 65.5035 27.4649 65.9137 27.3514C66.0359 27.3165 66.1755 27.2991 66.3064 27.2903C67.1791 27.2031 68.0518 27.1158 68.9245 27.0285C69.4045 26.9762 69.8845 26.9325 70.3645 26.8714C70.6525 26.8365 70.923 26.7318 71.211 26.7056C72.4066 26.6009 73.6022 26.5049 74.7979 26.4264C75.8189 26.3653 76.84 26.3129 77.8611 26.3129C78.5243 26.3129 79.205 26.3391 79.8508 26.4874C80.7497 26.6969 81.6312 26.9936 82.4952 27.3165C82.8791 27.4562 83.1933 27.7703 83.5511 27.9885C84.4587 28.5645 85.1656 29.3237 85.7154 30.2401C86.0296 30.7637 86.1867 31.3484 86.2303 31.9593C86.2565 32.3695 86.2565 32.7884 86.2303 33.1986C86.178 33.888 86.0034 34.5425 85.6893 35.1622C85.0173 36.4887 84.0049 37.5359 82.949 38.5483C82.4166 39.0632 81.893 39.5955 81.317 40.0668C80.7148 40.5555 80.0516 40.9831 79.4145 41.4369C79.1265 41.6464 78.856 41.8733 78.568 42.074C78.2102 42.3097 77.8349 42.5191 77.4683 42.746C77.128 42.9642 76.8051 43.226 76.456 43.4354C76.1942 43.5925 75.9062 43.6885 75.6357 43.8369C75.4175 43.9591 75.2255 44.1249 75.0073 44.2471C74.3702 44.5787 73.7332 44.8929 73.0961 45.2245C72.7208 45.4165 72.3717 45.6521 71.9965 45.8267C71.3594 46.1147 70.7136 46.3677 70.0678 46.6208C69.3172 46.9088 68.5667 47.1794 67.8162 47.4674C67.4584 47.607 67.1093 47.7815 66.7428 47.9212C66.2802 48.0957 65.809 48.2528 65.3464 48.4186C64.7792 48.6193 64.2206 48.8462 63.6446 49.0295C63.0948 49.2041 62.5276 49.3437 61.9778 49.5095C61.4454 49.6666 60.9131 49.8586 60.372 50.0157C59.7785 50.1902 59.1851 50.356 58.5917 50.5218C57.6491 50.7749 56.6979 51.028 55.7466 51.2811C54.9699 51.4905 54.2019 51.7 53.4252 51.9007C52.3431 52.1713 51.2609 52.4505 50.17 52.6949C49.6202 52.8171 49.053 52.8607 48.4944 52.9567C47.7177 53.0789 46.9497 53.2098 46.1817 53.332C45.2741 53.4803 44.3665 53.6025 43.4589 53.7683C43.0313 53.8469 42.6298 54.0301 42.2109 54.1087C41.7833 54.1872 41.3469 54.2047 40.9193 54.2483C40.352 54.3007 39.7848 54.3269 39.2263 54.3967C38.4932 54.4927 37.7688 54.7196 37.0358 54.7196C35.8489 54.7283 34.7405 55.1472 33.5711 55.217C33.1522 55.2432 32.742 55.3392 32.3231 55.3741C31.1624 55.4701 30.0017 55.5661 28.841 55.6446C28.4134 55.6708 27.9596 55.7145 27.6803 55.3043C27.3574 54.833 27.0869 54.3269 26.7814 53.8381C26.5022 53.3931 26.188 52.9567 25.9174 52.5029C25.6556 52.0665 25.42 51.6215 25.1669 51.1764C25.0535 50.9757 24.8964 50.7924 24.8004 50.5829C24.3728 49.6142 23.9451 48.6455 23.535 47.6681C23.2731 47.0397 23.0201 46.4027 22.7844 45.7569C22.6884 45.4863 22.6012 45.2158 22.5575 44.9278C22.4528 44.2645 22.1648 43.6536 22.0688 42.9729C21.9728 42.266 21.7895 41.5766 21.6761 40.861C21.519 39.8399 21.423 38.8188 21.2834 37.8065C21.0739 36.2618 21.1612 34.7171 21.1874 33.1811C21.1961 32.5964 21.2659 32.003 21.3445 31.427C21.423 30.8335 21.5626 30.2488 21.6674 29.6641C21.8332 28.7914 21.9903 27.9187 22.1473 27.046C22.1648 26.9587 22.1823 26.8714 22.2084 26.7842C22.3917 26.182 22.5662 25.5798 22.767 24.9864C22.8891 24.6286 23.055 24.2795 23.1946 23.9217C23.3779 23.4417 23.5524 22.953 23.7531 22.473C23.9713 21.9406 24.2157 21.417 24.46 20.9021C24.9051 19.9858 25.3502 19.0782 25.8214 18.1793C26.0571 17.7342 26.3625 17.3153 26.6505 16.8964C27.0781 16.2942 27.5232 15.7008 27.9596 15.1073C28.4134 14.4877 28.8759 13.8768 29.3385 13.2659C29.4345 13.1437 29.5392 13.0303 29.6439 12.9081C29.8795 12.6463 30.1064 12.3757 30.3508 12.1227C30.6475 11.8172 30.9617 11.5118 31.2759 11.2238C31.6424 10.8834 32.105 10.6042 32.3842 10.2027C32.742 9.68781 33.3267 9.4609 33.6846 8.99837C34.1384 8.42238 34.7929 8.12566 35.3252 7.66312C35.9012 7.15695 36.547 6.73805 37.1667 6.29297C37.3674 6.15334 37.5768 6.03116 37.7863 5.90025C38.3012 5.57735 38.7986 5.23699 39.3223 4.93155C39.7848 4.66101 40.2735 4.4341 40.7535 4.18102C40.928 4.08502 41.0851 3.96284 41.2684 3.87557C41.6873 3.68357 42.1149 3.50903 42.5425 3.32576C42.7171 3.24722 42.8829 3.16867 43.0574 3.09013C43.6422 2.83705 44.2269 2.58396 44.8116 2.3396C45.2305 2.16506 45.6407 1.98179 46.0596 1.83343C46.3999 1.71125 46.7577 1.62398 47.1068 1.53671C47.997 1.31853 48.8871 1.10908 49.7686 0.899632C50.5453 0.716363 51.3133 0.541821 52.09 0.358553C52.1074 0.349826 52.1336 0.349826 52.1598 0.349826C53.1547 0.271283 54.1496 0.175284 55.1445 0.122922C56.3663 0.061832 57.5793 -0.00798412 58.8011 0.000742965C59.8833 0.000742965 60.9742 0.0880128 62.0563 0.157829C62.7108 0.201465 63.3654 0.245101 64.0025 0.358553C64.7443 0.489459 65.4599 0.69891 66.193 0.873452C66.5333 0.960722 66.8824 1.03054 67.2228 1.12654C67.8598 1.29235 68.5056 1.45817 69.1427 1.65016C69.9194 1.88579 70.6961 2.1127 71.4641 2.39196C71.9616 2.56651 72.4328 2.81086 72.9215 3.02904C73.3317 3.21231 73.7593 3.3694 74.1433 3.5963C74.6757 3.91048 75.2604 4.16356 75.6967 4.6261C75.7142 4.69592 75.7055 4.73955 75.6967 4.78319Z" fill="url(#paint0_linear_4293_80618)"/>
<path d="M37.5764 63.6387C37.8382 63.5864 38.0913 63.5427 38.3531 63.4904C38.8855 63.3769 39.4091 63.2635 39.9415 63.15C40.3516 63.0627 40.7618 62.9667 41.1807 62.8969C42.0621 62.7486 42.9436 62.6089 43.825 62.4606C44.6715 62.3209 45.5181 62.2075 46.3471 62.0417C47.0279 61.902 47.6911 61.7013 48.3718 61.5355C48.7994 61.4308 49.2358 61.3784 49.6634 61.2737C50.0911 61.169 50.51 61.0293 50.9376 60.9159C51.243 60.8286 51.5572 60.7588 51.8627 60.6715C52.1332 60.593 52.4037 60.4795 52.6743 60.3835C52.779 60.3486 52.875 60.305 52.9797 60.2788C53.5557 60.1479 54.1317 60.0344 54.699 59.9035C55.0306 59.8337 55.3709 59.7552 55.7026 59.6679C56.1127 59.5632 56.5142 59.4323 56.9156 59.3188C57.2647 59.2228 57.6138 59.1443 57.9629 59.0395C58.5738 58.865 59.1934 58.6817 59.7956 58.481C60.6596 58.2017 61.5235 57.905 62.3788 57.5996C63.0159 57.3727 63.6442 57.1021 64.2813 56.8665C64.5693 56.7618 64.8747 56.692 65.1627 56.596C65.8085 56.3691 66.4543 56.1422 67.1001 55.9065C67.5976 55.732 68.0863 55.5574 68.5838 55.3829C68.7757 55.3131 68.959 55.252 69.1423 55.1734C69.8841 54.8593 70.6259 54.5276 71.3764 54.2222C71.743 54.0738 72.1357 54.004 72.5022 53.8469C73.1044 53.5851 73.6978 53.2884 74.2913 53.0091C74.9109 52.7211 75.5392 52.4419 76.1589 52.1539C76.7698 51.8746 77.3807 51.5953 77.9828 51.3073C78.6374 50.9932 79.2919 50.679 79.9377 50.3561C80.2955 50.1728 80.6446 49.9721 81.0024 49.7801C81.334 49.6056 81.6744 49.4572 82.006 49.2739C82.3202 49.1081 82.6082 48.8987 82.9136 48.7329C83.446 48.4449 83.9958 48.183 84.5369 47.8951C84.6765 47.8165 84.7812 47.6856 84.9209 47.6071C85.1041 47.4936 85.3136 47.4238 85.4968 47.3191C86.1339 46.9613 86.7623 46.5947 87.3993 46.2369C87.8881 45.9576 88.3768 45.6871 88.848 45.3904C89.3804 45.0675 89.8953 44.7184 90.4102 44.3868C90.48 44.3431 90.5586 44.3169 90.672 44.2559C90.5847 44.5962 90.5411 44.8842 90.4451 45.1635C90.1309 46.0973 89.8255 47.0311 89.4677 47.9474C89.267 48.4623 88.944 48.9248 88.7259 49.431C88.2372 50.5568 87.5826 51.5779 86.8844 52.5815C86.4045 53.2709 85.8547 53.908 85.3485 54.5713C85.0169 54.9989 84.7201 55.4527 84.3798 55.8716C83.3849 57.0934 82.3115 58.2366 81.0809 59.2315C80.3479 59.825 79.6497 60.4621 78.8992 61.0293C77.9741 61.7362 77.0228 62.4082 76.0541 63.0715C75.5392 63.4293 74.9283 63.6562 74.4571 64.0576C74.012 64.4329 73.5233 64.6772 73.0346 64.9478C72.3888 65.3056 71.743 65.6634 71.0797 65.9863C70.5823 66.2307 70.0499 66.3877 69.5612 66.6321C68.767 67.0248 67.9205 67.2343 67.0914 67.4961C66.5503 67.6706 66.0267 67.8714 65.4856 68.0372C65.1104 68.1506 64.7177 68.203 64.3249 68.2903C63.7228 68.4212 63.1293 68.5695 62.5272 68.683C62.0733 68.7702 61.6108 68.8401 61.1483 68.8837C60.4065 68.9622 59.6734 69.0495 58.9316 69.067C57.352 69.0931 55.7724 69.1106 54.1928 69.0408C53.2241 68.9971 52.2554 68.8139 51.2954 68.6742C50.5274 68.5608 49.7594 68.4386 49.0089 68.2641C48.2322 68.0808 47.4817 67.819 46.7137 67.6008C46.3122 67.4874 45.8933 67.435 45.4919 67.3128C44.6715 67.0685 43.8163 66.9376 43.0396 66.5361C42.5159 66.2656 41.9225 66.1259 41.3902 65.8641C40.4651 65.4103 39.5575 64.9303 38.6498 64.4329C38.2833 64.2322 37.943 63.9791 37.5939 63.7522C37.5851 63.726 37.5764 63.6824 37.5764 63.6387Z" fill="url(#paint1_linear_4293_80618)"/>
<path d="M114 91.0586C114.008 92.9873 113.764 94.8724 112.944 96.644C111.661 99.4192 109.47 100.99 106.477 101.496C104.513 101.828 102.576 101.723 100.682 101.069C97.8546 100.1 96.1615 98.0578 95.315 95.2564C94.7652 93.4237 94.6866 91.5386 94.8175 89.6361C94.9135 88.1787 95.2015 86.7736 95.8211 85.4471C97.0778 82.7417 99.216 81.1534 102.122 80.6123C104.513 80.1672 106.861 80.3505 109.095 81.4065C111.05 82.3316 112.315 83.8937 113.118 85.8573C113.799 87.5242 114.008 89.2783 114 91.0586ZM104.452 98.2061C104.653 98.1887 104.95 98.1625 105.246 98.1276C107.219 97.9443 108.755 96.6789 109.348 94.7677C109.654 93.7728 109.784 92.7517 109.828 91.7132C109.88 90.2121 109.802 88.7285 109.339 87.2973C108.894 85.9009 108.039 84.8537 106.66 84.2777C105.787 83.9199 104.871 83.8763 103.946 83.9024C101.773 83.9635 100.045 85.2115 99.4167 87.2973C98.7273 89.6012 98.736 91.9488 99.2771 94.2877C99.5214 95.3349 100.001 96.2687 100.822 96.9931C101.843 97.8832 103.056 98.1538 104.452 98.2061Z" fill="url(#paint2_linear_4293_80618)"/>
<path d="M90.8031 22.7082C90.2882 22.4376 89.782 22.1409 89.2496 21.8966C88.6649 21.626 88.054 21.3904 87.4606 21.146C86.937 20.9279 86.4133 20.701 85.881 20.4828C85.6104 20.3781 85.3399 20.2821 85.0606 20.2122C84.1617 19.9853 83.2541 19.7933 82.3552 19.549C81.4913 19.3134 80.5836 19.3046 79.7109 19.1301C77.9393 18.7723 76.1415 18.9555 74.3525 18.9032C72.7642 18.8595 71.1671 18.9032 69.5788 18.9555C69.0028 18.973 68.4355 19.1563 67.8595 19.261C67.781 19.2784 67.7112 19.3046 67.6326 19.3134C66.9083 19.4094 66.1752 19.4879 65.4509 19.5926C65.1803 19.6275 64.9098 19.7148 64.6392 19.7672C63.6182 19.9766 62.5884 20.1599 61.576 20.3868C60.843 20.5439 60.0924 20.6835 59.403 20.9628C58.6699 21.2508 57.8845 21.3293 57.1514 21.5649C56.4445 21.7918 55.7638 22.0798 55.0656 22.3242C54.6031 22.49 54.1144 22.5947 53.6519 22.7606C53.0497 22.97 52.465 23.2231 51.8715 23.4413C51.5573 23.5634 51.2257 23.6594 50.9115 23.7642C50.737 23.8253 50.5537 23.8776 50.3879 23.9562C49.8032 24.2092 49.2359 24.4798 48.6512 24.7241C48.2847 24.8812 47.9007 24.9947 47.5342 25.1518C47.0193 25.3787 46.5131 25.623 45.9982 25.8587C45.2826 26.1903 44.5582 26.5132 43.8426 26.8361C43.5895 26.9496 43.3452 27.0805 43.0921 27.1765C43.0135 27.2114 42.9088 27.1765 42.8215 27.1677C42.839 27.0717 42.8303 26.9583 42.8826 26.8972C43.3452 26.3823 43.8252 25.8848 44.2964 25.37C44.4535 25.2041 44.5931 25.0121 44.7589 24.8463C45.1342 24.4798 45.5095 24.1133 45.9196 23.7729C46.7138 23.1184 47.5167 22.4726 48.3283 21.8355C48.913 21.3817 49.4978 20.9191 50.0999 20.4915C50.5276 20.1861 50.9901 19.9242 51.4439 19.6537C52.1508 19.2261 52.9275 18.8857 53.5646 18.3621C54.2802 17.7687 55.1791 17.5505 55.9296 17.0443C56.3922 16.7301 56.9856 16.6167 57.5179 16.3985C58.0852 16.1629 58.6437 15.9011 59.2023 15.6654C59.4205 15.5694 59.6474 15.4909 59.883 15.4211C60.4153 15.264 60.9477 15.1331 61.4713 14.9585C61.7419 14.8713 61.9862 14.7316 62.248 14.6182C62.3004 14.592 62.344 14.5658 62.3964 14.5571C63.2953 14.3651 64.1854 14.1207 65.0931 14.0073C66.3148 13.8589 67.5454 13.8066 68.7759 13.7106C69.3955 13.6669 70.0151 13.5709 70.626 13.5797C71.6209 13.5884 72.6158 13.6669 73.6107 13.7018C74.0209 13.7193 74.431 13.6844 74.8412 13.728C75.7401 13.8153 76.6303 13.92 77.5204 14.0596C78.3582 14.1906 79.196 14.3564 80.0251 14.5571C80.4702 14.6618 80.8891 14.8887 81.3167 15.0458C82.2243 15.3774 83.0534 15.8312 83.9174 16.2589C84.9297 16.7563 85.8112 17.437 86.71 18.0741C87.4257 18.589 88.2111 19.069 88.7347 19.8283C88.8482 19.9941 89.0838 20.0639 89.2147 20.221C89.7034 20.8231 90.1834 21.4253 90.6372 22.0537C90.7507 22.2107 90.7943 22.4289 90.8641 22.6209C90.8554 22.6558 90.8292 22.682 90.8031 22.7082Z" fill="url(#paint3_linear_4293_80618)"/>
<path d="M52.8928 101.321C53.1721 100.51 53.4426 99.7331 53.7132 98.9651C55.764 93.022 57.8236 87.0701 59.8658 81.1182C59.9705 80.8128 60.1188 80.7168 60.433 80.7168C61.9166 80.7343 63.4002 80.7255 64.8751 80.7168C65.1195 80.7168 65.2504 80.7779 65.3289 81.031C67.1005 86.1712 68.8721 91.3115 70.6524 96.4517C71.1761 97.9615 71.6997 99.48 72.2233 100.99C72.2582 101.095 72.2844 101.199 72.328 101.339C72.2059 101.348 72.1099 101.365 72.0139 101.365C70.8183 101.365 69.6314 101.356 68.4358 101.374C68.1827 101.374 68.0867 101.278 68.0169 101.051C67.5805 99.672 67.118 98.3019 66.6816 96.923C66.6031 96.6786 66.4896 96.6001 66.2365 96.6001C63.7929 96.6088 61.3581 96.6088 58.9145 96.6001C58.6178 96.6001 58.5131 96.7048 58.4258 96.9666C57.9894 98.3455 57.5356 99.7157 57.0731 101.086C57.0382 101.199 56.8811 101.348 56.7764 101.356C55.5371 101.374 54.3066 101.365 53.0674 101.365C53.0412 101.365 52.9975 101.348 52.8928 101.321ZM65.4249 93.214C65.3987 93.0918 65.39 93.0133 65.3638 92.926C64.526 90.3602 63.6882 87.7945 62.8417 85.2287C62.8068 85.124 62.6759 85.0105 62.5624 84.9843C62.3355 84.9145 62.3006 85.1152 62.2483 85.2723C61.4279 87.7945 60.5988 90.3166 59.7785 92.8474C59.7436 92.9609 59.7261 93.0743 59.6912 93.214C61.6286 93.214 63.505 93.214 65.4249 93.214Z" fill="url(#paint4_linear_4293_80618)"/>
<path d="M19.5639 91.0506C19.5639 87.743 19.5726 84.4354 19.5552 81.1192C19.5552 80.7875 19.6599 80.709 19.9741 80.709C24.2678 80.7177 28.5528 80.7177 32.8465 80.7177C33.2829 80.7177 33.2829 80.7177 33.2829 81.1541C33.2829 82.0006 33.2742 82.8471 33.2916 83.6936C33.3003 83.9816 33.2043 84.0515 32.9338 84.0515C29.984 84.0427 27.0256 84.0427 24.0758 84.0427C23.5958 84.0427 23.5958 84.0427 23.5958 84.514C23.5958 85.8754 23.6045 87.2368 23.5871 88.5895C23.5871 88.9124 23.6918 89.0084 24.006 89.0084C26.5456 88.9997 29.0852 88.9997 31.6247 88.9997C32.0698 88.9997 32.0698 88.9997 32.0698 89.4361C32.0698 90.2477 32.0611 91.0593 32.0785 91.8797C32.0873 92.1676 32 92.2636 31.7033 92.2636C29.155 92.2549 26.5979 92.2549 24.0496 92.2549C23.5958 92.2549 23.5958 92.2549 23.5958 92.7087C23.5958 94.332 23.5958 95.9639 23.5958 97.5872C23.5958 98.0235 23.5958 98.0235 24.0496 98.0235C27.043 98.0235 30.0451 98.0235 33.0385 98.0235C33.5011 98.0235 33.5011 98.0235 33.5011 98.4773C33.5011 99.3239 33.4923 100.17 33.5098 101.017C33.5185 101.287 33.4225 101.357 33.1607 101.357C28.7448 101.349 24.3376 101.349 19.9217 101.357C19.6075 101.357 19.5639 101.235 19.5639 100.965C19.5726 97.6744 19.5639 94.3581 19.5639 91.0506Z" fill="url(#paint5_linear_4293_80618)"/>
<path d="M14.8862 82.9612C14.2579 83.8251 13.6295 84.6804 13.0012 85.5269C12.8266 85.7538 12.6259 85.7364 12.3554 85.4746C11.6485 84.7938 10.8281 84.3313 9.87688 84.0957C8.67254 83.799 7.45948 83.7291 6.24641 84.0608C5.45225 84.2789 4.78899 84.6804 4.54463 85.5444C4.19555 86.7662 4.81517 87.9007 6.12423 88.2934C7.3373 88.6512 8.57654 88.9043 9.81579 89.1748C11.0899 89.4628 12.3379 89.8206 13.4288 90.5799C14.8339 91.5486 15.4971 92.9188 15.6455 94.5769C15.7415 95.6067 15.6629 96.619 15.3313 97.6052C14.6942 99.5164 13.3154 100.651 11.439 101.236C9.85943 101.724 8.24492 101.759 6.62168 101.593C5.08571 101.428 3.63701 101.026 2.30177 100.241C1.43779 99.7259 0.713439 99.0626 0.128724 98.2423C-0.0370903 98.0067 -0.0545441 97.8496 0.146179 97.6139C0.765802 96.8983 1.35052 96.1565 1.95269 95.4234C2.22323 95.0918 2.38904 95.1005 2.65958 95.4496C3.6632 96.7587 4.91989 97.6925 6.55186 98.0328C7.74747 98.2859 8.95181 98.3645 10.13 97.8845C11.9103 97.1601 11.9714 94.6467 10.8369 93.7566C10.1823 93.2417 9.40562 93.0148 8.61145 92.814C7.18021 92.4562 5.73151 92.142 4.33518 91.6882C3.01739 91.2606 1.90905 90.4577 1.23706 89.1923C-0.220359 86.4345 0.399265 82.3503 4.44863 80.9714C5.92351 80.4652 7.45075 80.3779 8.99544 80.4652C10.3045 80.5437 11.5699 80.8056 12.7655 81.3728C13.5597 81.7394 14.2579 82.2804 14.8862 82.9612Z" fill="url(#paint6_linear_4293_80618)"/>
<path d="M50.545 82.9609C49.9079 83.8424 49.2883 84.6976 48.6512 85.5441C48.468 85.7798 48.2411 85.7012 48.0491 85.5092C47.3334 84.8023 46.4956 84.3223 45.5182 84.0867C44.183 83.7725 42.8564 83.694 41.5474 84.174C40.7008 84.4882 40.1598 85.0816 40.1249 86.0067C40.0812 86.9579 40.4827 87.6823 41.3641 88.1099C42.2543 88.5463 43.223 88.6946 44.183 88.9041C45.4484 89.1746 46.7313 89.3928 47.9356 89.9339C49.8992 90.8066 51.0599 92.264 51.2955 94.4283C51.4788 96.1301 51.2257 97.7359 50.2046 99.1584C49.3232 100.371 48.0665 101.009 46.6527 101.366C45.1866 101.742 43.703 101.75 42.2106 101.585C40.7008 101.419 39.2696 101.017 37.9605 100.232C37.0704 99.6995 36.3198 99.0188 35.7351 98.146C35.6217 97.9715 35.613 97.8493 35.7526 97.6835C36.3809 96.933 37.0006 96.165 37.6202 95.4145C37.882 95.0916 38.0478 95.0916 38.3009 95.4319C39.1736 96.5926 40.2732 97.4653 41.6696 97.8842C42.9786 98.277 44.3139 98.4079 45.6404 97.9366C46.5654 97.605 47.0978 96.933 47.22 95.9643C47.3247 95.1003 47.1763 94.2887 46.4345 93.7127C45.8062 93.224 45.0557 93.0058 44.2964 92.8225C43.0223 92.5171 41.7394 92.2465 40.4827 91.88C39.1038 91.4698 37.8995 90.7455 37.0704 89.5062C36.5817 88.7644 36.3111 87.9441 36.2326 87.0714C36.0929 85.5616 36.3286 84.1391 37.2973 82.9086C38.1874 81.774 39.3918 81.137 40.7619 80.7704C42.0535 80.4301 43.3713 80.3777 44.7066 80.465C46.0069 80.5522 47.2636 80.8053 48.4418 81.3726C49.2272 81.7479 49.9254 82.2627 50.545 82.9609Z" fill="url(#paint7_linear_4293_80618)"/>
<path d="M78.5503 91.0593C78.5765 92.4294 78.6812 93.7908 79.2136 95.0825C79.9379 96.8715 81.2731 97.8751 83.1756 98.1369C84.0134 98.2504 84.8425 98.2417 85.6629 98.0409C87.4432 97.5959 88.4555 96.3915 88.953 94.6897C89.0839 94.2447 89.1886 94.1923 89.6075 94.4105C90.4279 94.8294 91.2482 95.2657 92.0685 95.6846C92.2867 95.7893 92.3478 95.9028 92.2693 96.1472C91.6758 97.9449 90.7158 99.4722 89.0664 100.485C88.1326 101.061 87.1116 101.392 86.0294 101.549C84.188 101.811 82.364 101.75 80.5837 101.165C77.7823 100.24 75.9933 98.3027 75.0682 95.5537C74.3787 93.5203 74.3089 91.4083 74.5097 89.2877C74.658 87.7168 75.0507 86.2245 75.8274 84.8456C76.962 82.8122 78.655 81.4944 80.8804 80.866C83.2367 80.194 85.5843 80.2551 87.9057 81.0318C89.8082 81.6776 91.1784 82.9256 91.9813 84.7845C92.086 85.0201 92.0686 85.151 91.8242 85.2907C90.9777 85.7881 90.1486 86.303 89.3108 86.8092C88.9966 87.0012 88.857 86.9575 88.7173 86.6259C87.9406 84.863 86.553 84.034 84.668 83.9031C83.5247 83.8245 82.4251 83.9292 81.4041 84.479C80.0252 85.2208 79.2572 86.4426 78.9343 87.9175C78.7074 88.9386 78.6288 90.0033 78.4892 91.0418C78.4892 91.0505 78.5154 91.0505 78.5503 91.0593Z" fill="url(#paint8_linear_4293_80618)"/>
<path d="M104.452 98.2065C103.056 98.1541 101.834 97.8836 100.831 97.0021C100.002 96.2778 99.5216 95.344 99.286 94.2968C98.7449 91.9579 98.7362 89.619 99.4256 87.3064C100.054 85.2119 101.782 83.9639 103.955 83.9115C104.889 83.8853 105.796 83.929 106.669 84.2868C108.048 84.854 108.903 85.91 109.348 87.3064C109.811 88.7463 109.889 90.2299 109.837 91.7223C109.802 92.7608 109.671 93.7819 109.357 94.7767C108.764 96.688 107.228 97.9534 105.255 98.1367C104.959 98.1541 104.653 98.189 104.452 98.2065Z" fill="white"/>
<path d="M65.4249 93.2156C63.5049 93.2156 61.6198 93.2156 59.6912 93.2156C59.7261 93.076 59.7435 92.9625 59.7784 92.8491C60.5988 90.3269 61.4191 87.8048 62.2482 85.2739C62.3006 85.1169 62.3355 84.9161 62.5624 84.986C62.6758 85.0209 62.8067 85.1256 62.8416 85.2303C63.6882 87.7961 64.526 90.3618 65.3638 92.9276C65.3899 93.0062 65.3987 93.0934 65.4249 93.2156Z" fill="white"/>
<defs>
<linearGradient id="paint0_linear_4293_80618" x1="6.38844" y1="31.0553" x2="80.4354" y2="19.8699" gradientUnits="userSpaceOnUse">
<stop stop-color="#600100"/>
<stop offset="1" stop-color="#BF1F2A"/>
</linearGradient>
<linearGradient id="paint1_linear_4293_80618" x1="25.5399" y1="58.1119" x2="82.9321" y2="42.2647" gradientUnits="userSpaceOnUse">
<stop stop-color="#600100"/>
<stop offset="1" stop-color="#BF1F2A"/>
</linearGradient>
<linearGradient id="paint2_linear_4293_80618" x1="90.4014" y1="92.2664" x2="112.48" y2="89.6903" gradientUnits="userSpaceOnUse">
<stop stop-color="#600100"/>
<stop offset="1" stop-color="#BF1F2A"/>
</linearGradient>
<linearGradient id="paint3_linear_4293_80618" x1="31.9305" y1="21.1741" x2="78.2061" y2="0.0816055" gradientUnits="userSpaceOnUse">
<stop stop-color="#600100"/>
<stop offset="1" stop-color="#BF1F2A"/>
</linearGradient>
<linearGradient id="paint4_linear_4293_80618" x1="48.487" y1="92.2422" x2="70.7676" y2="89.5349" gradientUnits="userSpaceOnUse">
<stop stop-color="#600100"/>
<stop offset="1" stop-color="#BF1F2A"/>
</linearGradient>
<linearGradient id="paint5_linear_4293_80618" x1="16.3916" y1="92.2295" x2="32.5034" y2="90.8232" gradientUnits="userSpaceOnUse">
<stop stop-color="#600100"/>
<stop offset="1" stop-color="#BF1F2A"/>
</linearGradient>
<linearGradient id="paint6_linear_4293_80618" x1="-3.55539" y1="92.2904" x2="14.5255" y2="90.5668" gradientUnits="userSpaceOnUse">
<stop stop-color="#600100"/>
<stop offset="1" stop-color="#BF1F2A"/>
</linearGradient>
<linearGradient id="paint7_linear_4293_80618" x1="32.0895" y1="92.2895" x2="50.191" y2="90.5629" gradientUnits="userSpaceOnUse">
<stop stop-color="#600100"/>
<stop offset="1" stop-color="#BF1F2A"/>
</linearGradient>
<linearGradient id="paint8_linear_4293_80618" x1="70.3557" y1="92.2836" x2="90.9263" y2="90.0516" gradientUnits="userSpaceOnUse">
<stop stop-color="#600100"/>
<stop offset="1" stop-color="#BF1F2A"/>
</linearGradient>
</defs>
</svg>
