<svg id="Layer_1" data-name="Layer 1" xmlns="http://www.w3.org/2000/svg" viewBox="0 0 62 62.91"><defs><style>.cls-1{fill:#ccd1d9;}.cls-2{fill:#fff;isolation:isolate;opacity:0.7;}.cls-3{fill:#e6e9ed;}.cls-4{fill:#f2f2f2;}</style></defs><path class="cls-1" d="M65.62,26.72v6.56a30.62,30.62,0,1,1-61.24,0V26.72a30.62,30.62,0,0,0,61.24,0Z" transform="translate(-4 -1)"/><path class="cls-2" d="M35,7A25,25,0,1,1,10,32,25,25,0,0,1,35,7ZM50,31.5a15,15,0,1,0-15,15A15,15,0,0,0,50,31.5Z" transform="translate(-4 -1)"/><path class="cls-3" d="M66,32A31,31,0,1,1,35,1,31,31,0,0,1,66,32Zm-8.86,0A22.14,22.14,0,1,0,35,54.14,22.16,22.16,0,0,0,57.14,32Z" transform="translate(-4 -1)"/><path class="cls-4" d="M35,12A20,20,0,1,1,15,32,20,20,0,0,1,35,12Z" transform="translate(-4 -1)"/></svg>