<svg width="64" height="64" viewBox="0 0 64 64" fill="none" xmlns="http://www.w3.org/2000/svg">
<path d="M60 27.1714V33.1714C60 48.6314 47.46 61.1714 32 61.1714C16.54 61.1714 4 48.6314 4 33.1714V27.1714C4 42.6314 16.54 55.1714 32 55.1714C47.46 55.1714 60 42.6314 60 27.1714Z" fill="#CCD1D9"/>
<path opacity="0.7" d="M31.9997 9.14307C44.6054 9.14307 54.8569 19.3831 54.8569 32.0002C54.8569 44.6059 44.6054 54.8574 31.9997 54.8574C19.394 54.8574 9.14258 44.6059 9.14258 32.0002C9.14258 19.3831 19.394 9.14307 31.9997 9.14307ZM45.714 31.5431C45.714 23.9774 39.5654 17.8288 31.9997 17.8288C24.434 17.8288 18.2854 23.9774 18.2854 31.5431C18.2854 39.1088 24.434 45.2574 31.9997 45.2574C39.5654 45.2574 45.714 39.1088 45.714 31.5431Z" fill="white"/>
<path d="M60.3429 32.0001C60.3429 47.6494 47.6494 60.3429 32.0001 60.3429C16.3508 60.3429 3.65723 47.6494 3.65723 32.0001C3.65723 16.3508 16.3508 3.65723 32.0001 3.65723C47.6494 3.65723 60.3429 16.3508 60.3429 32.0001ZM52.245 32.0001C52.245 20.8249 43.1651 11.7552 32.0001 11.7552C20.835 11.7552 11.7552 20.8249 11.7552 32.0001C11.7552 43.1651 20.835 52.245 32.0001 52.245C43.1651 52.245 52.245 43.1651 52.245 32.0001Z" fill="#E6E9ED"/>
<path d="M32.0006 13.7144C42.0882 13.7144 50.2863 21.9125 50.2863 32.0001C50.2863 42.0877 42.0882 50.2858 32.0006 50.2858C21.9129 50.2858 13.7148 42.0877 13.7148 32.0001C13.7148 21.9125 21.9129 13.7144 32.0006 13.7144Z" fill="#F2F2F2"/>
<g clip-path="url(#clip0_5046_78166)">
<path d="M33.3534 21.7143C33.2478 21.7195 33.1506 21.7741 33.0902 21.861L25.2039 33.1746C25.0453 33.4019 25.208 33.7137 25.4851 33.7137H30.9414L30.2864 41.9161C30.2608 42.2628 30.708 42.4231 30.9085 42.1391L38.7949 30.8261C38.9533 30.5991 38.7912 30.2876 38.5143 30.2871H33.0574L33.713 22.084C33.7295 21.8774 33.5603 21.7036 33.3534 21.7143Z" fill="#FFC000"/>
</g>
<defs>
<clipPath id="clip0_5046_78166">
<rect width="21.9429" height="21.9429" fill="white" transform="translate(21.0283 21.0288)"/>
</clipPath>
</defs>
</svg>
