<svg width="70" height="70" viewBox="0 0 70 70" fill="none" xmlns="http://www.w3.org/2000/svg">
<path d="M35.195 27.6332C33.6446 27.6327 32.1221 27.3199 30.6696 26.7041C30.2283 26.5168 29.9034 26.1436 29.7782 25.6795C29.6529 25.2147 29.7467 24.7274 30.0347 24.3424C30.3267 23.9528 30.7803 23.7294 31.2785 23.7294C31.4781 23.7294 31.6758 23.7657 31.8656 23.8371C32.9077 24.2281 34.0063 24.4264 35.131 24.4264C36.2928 24.4206 37.4194 24.2106 38.4814 23.801C38.6739 23.7269 38.8746 23.6895 39.0783 23.6895C39.5702 23.6895 40.0198 23.9087 40.3121 24.2913C40.6093 24.6801 40.7075 25.166 40.5872 25.6314C40.4671 26.0962 40.1461 26.473 39.707 26.6653C38.2572 27.2994 36.7391 27.6253 35.195 27.6332Z" fill="#F9CFCF"/>
<path d="M53.6005 26.9692C52.9888 26.4023 52.0375 26.4182 51.4485 27.0088C47.0289 31.4396 41.185 33.9694 35.2025 33.9976H35.1024C29.1628 33.9976 23.3367 31.523 18.9034 27.1619C18.3087 26.5768 17.3574 26.5694 16.7509 27.1422L16.7507 27.1425C16.1141 27.7435 16.1029 28.7484 16.7168 29.3724C21.7122 34.449 28.3305 37.3319 35.1035 37.3327H35.1041L35.2236 37.3324C42.0425 37.3004 48.677 34.355 53.6549 29.1993C54.2633 28.5688 54.2428 27.5644 53.6005 26.9692Z" fill="#FF889E"/>
<path d="M46.4834 20.6523C47.1224 21.2981 47.0904 22.3566 46.4011 22.9483C43.2068 25.6884 39.2882 27.1902 35.2063 27.2096L35.1248 27.2098H35.124C31.0722 27.209 27.1689 25.7442 23.9713 23.0533C23.2765 22.4684 23.2349 21.4105 23.8677 20.7589C24.4389 20.1707 25.3584 20.1278 25.9988 20.64C28.652 22.7616 31.779 23.8753 35.1229 23.8753L35.1902 23.875C38.56 23.8591 41.7004 22.7159 44.3517 20.5536C44.9872 20.0351 45.907 20.0696 46.4834 20.6523Z" fill="#FF889E"/>
<path d="M58.8411 34.4214C58.1923 33.8124 57.1726 33.8277 56.5514 34.4649C50.7783 40.3859 43.1696 43.7415 35.2101 43.7787H35.0816C27.1916 43.7787 19.6111 40.5026 13.8216 34.6863C13.1856 34.0476 12.1615 34.0208 11.5099 34.644C10.8586 35.2668 10.8239 36.3051 11.4481 36.9548C17.834 43.6015 26.2895 47.3566 35.083 47.3577L35.2356 47.3574C44.0875 47.3156 52.5627 43.4806 58.9248 36.7319C59.5425 36.0759 59.4982 35.038 58.8411 34.4214Z" fill="#FF889E"/>
<path d="M50.3184 40.8503L49.252 40.4262L42.013 37.694C41.7771 37.6049 41.5802 37.4354 41.4574 37.215L39.6289 33.9359C39.2688 32.251 38.0266 30.8947 36.4078 30.3725C38.863 29.7933 40.6907 27.5894 40.6907 24.9576C40.6907 21.8841 38.1991 19.3926 35.1257 19.3926C32.0522 19.3926 29.5607 21.8841 29.5607 24.9576C29.5607 27.5161 31.2877 29.6697 33.639 30.3202C33.3962 30.388 33.1616 30.4739 32.9357 30.5773C32.7123 30.6205 32.4908 30.6984 32.2795 30.8193L27.4172 33.5938C26.8813 33.8995 26.4878 34.4046 26.3218 34.9988L23.7012 44.3889C23.4655 45.2335 23.8934 46.1222 24.7009 46.4643C25.6021 46.8463 26.6412 46.412 27.0027 45.5026L27.4268 44.4362L30.1267 37.2828V43.8059V46.062V48.2205L25.5062 64.7323L24.8606 67.0391V67.2239C24.8606 67.549 25.1242 67.8129 25.4496 67.8129H25.8124H31.8103C32.0525 67.8129 32.2489 67.6166 32.2489 67.3743C32.2489 67.0341 32.0856 66.7148 31.81 66.5157L30.1267 65.2995L34.928 54.3371L40.3585 66.7358L40.455 67.047C40.5406 67.3232 40.796 67.5113 41.085 67.5113H46.7722C47.0954 67.5113 47.3574 67.2493 47.3574 66.9261C47.3574 66.3213 46.9948 65.7758 46.4372 65.5414L44.328 64.655L39.7364 48.2465V43.8059V41.5055C39.7624 41.5137 39.7875 41.5241 39.814 41.5314L49.2042 44.1521C50.0488 44.3878 50.9375 43.9598 51.2796 43.1524C51.6621 42.2509 51.2279 41.2118 50.3184 40.8503Z" fill="#C9D8E0"/>
<path d="M47.9997 1.8222V6.40068L34.9999 10.6609L22 6.40068V1.8222C22 0.816574 23.2459 0 24.781 0H45.2195C46.7539 0 47.9997 0.816574 47.9997 1.8222Z" fill="#E6E9ED"/>
<path d="M48 6.40039C48 8.75345 46.5455 10.8838 44.1931 12.4256C41.8406 13.9675 38.5903 14.9207 35.0001 14.9207C27.8206 14.9207 22.0002 11.106 22.0002 6.40039H48Z" fill="#FF889E"/>
<path d="M28.447 6.40039H22C22 11.106 27.8204 14.9207 34.9999 14.9207C36.1129 14.9207 37.1926 14.8284 38.2234 14.6564C32.6034 13.7164 28.447 10.377 28.447 6.40039Z" fill="#DA2A4A"/>
</svg>
