<svg width="70" height="70" viewBox="0 0 70 70" fill="none" xmlns="http://www.w3.org/2000/svg">
<g clip-path="url(#clip0_6490_72894)">
<path d="M44.8994 17.8021C42.385 15.1644 38.7764 13.6514 34.9979 13.6514C31.2195 13.6514 27.6108 15.1644 25.0965 17.8021C22.7835 20.2294 21.5958 23.3557 21.7522 26.606L23.3373 59.5686C23.6188 65.4181 28.7409 69.9998 34.9979 69.9998C41.2555 69.9998 46.3771 65.4181 46.6585 59.5686L48.2436 26.606C48.4001 23.3557 47.2124 20.2294 44.8994 17.8021Z" fill="#E6E9ED"/>
<path d="M44.8994 17.8021C42.385 15.1644 38.7764 13.6514 34.998 13.6514C34.3186 13.6514 33.6452 13.701 32.9824 13.7961C36.0068 14.2324 39.4375 15.3365 41.5 17.5C43.813 19.9273 46.3685 23.3557 46.2126 26.606L44.627 59.5686C44.3765 64.7751 38.2899 68.9744 32.9824 69.8353C33.6372 69.9416 34.3101 69.9998 34.998 69.9998C41.2555 69.9998 46.3771 65.4181 46.6586 59.5686L48.2437 26.606C48.4001 23.3557 47.2124 20.2294 44.8994 17.8021Z" fill="#CCD1D9"/>
<path d="M43.0862 4.52026C42.8918 4.52026 42.6947 4.46472 42.5201 4.34937C40.2536 2.8492 37.6527 2.05666 34.9979 2.05666C32.3431 2.05666 29.7422 2.8492 27.4757 4.34937C27.002 4.66232 26.3643 4.53255 26.0508 4.05937C25.7373 3.58566 25.8671 2.94746 26.3408 2.63451C28.9449 0.911102 31.9383 0 34.9979 0C38.0575 0 41.0509 0.911102 43.655 2.63397C44.1287 2.94746 44.2585 3.58566 43.945 4.05937C43.7468 4.35791 43.42 4.52026 43.0862 4.52026Z" fill="#EB5757"/>
<path d="M29.7801 8.4095C29.4426 8.4095 29.1115 8.24341 28.915 7.93846C28.6073 7.46101 28.7451 6.82442 29.2226 6.5168C30.9652 5.39368 32.9626 4.7998 34.9979 4.7998C37.0332 4.7998 39.0306 5.39368 40.7732 6.5168C41.2506 6.82442 41.3884 7.46101 41.0808 7.93846C40.7732 8.41537 40.1366 8.55316 39.6591 8.24554C38.2492 7.33711 36.6374 6.85646 34.9979 6.85646C33.3583 6.85646 31.7465 7.33711 30.3366 8.24554C30.1641 8.35663 29.9708 8.4095 29.7801 8.4095Z" fill="#EB5757"/>
<path d="M37.2061 12.4639C36.9903 12.4639 36.773 12.3967 36.5877 12.2567C36.0878 11.8797 35.5532 11.6885 34.9978 11.6885C34.4429 11.6885 33.9078 11.8797 33.4079 12.2567C32.9545 12.5985 32.3099 12.5083 31.9675 12.0549C31.6257 11.6014 31.716 10.9568 32.1694 10.6145C33.0218 9.9715 34.0002 9.63184 34.9978 9.63184C35.9959 9.63184 36.9738 9.9715 37.8261 10.6145C38.2796 10.9563 38.3698 11.6014 38.028 12.0549C37.8256 12.323 37.518 12.4639 37.2061 12.4639Z" fill="#EB5757"/>
<path d="M34.998 20.5811C30.5332 20.5811 26.9011 24.2132 26.9011 28.6779C26.9011 33.1426 30.5338 36.7747 34.998 36.7747C39.4627 36.7747 43.0948 33.1426 43.0948 28.6779C43.0948 24.2132 39.4627 20.5811 34.998 20.5811Z" fill="#DDDDDD"/>
<path d="M36.4763 20.9997C35.9686 20.9997 35.4746 20.8644 35 21C37.8877 21.8226 41.6583 25.2116 41.6583 28.9997C41.6583 32.7878 37.8877 35.967 35 36.7902C35.4746 36.9258 35.9686 36.9997 36.4763 36.9997C40.0736 36.9997 43 33.411 43 28.9997C43 24.5884 40.0736 20.9997 36.4763 20.9997Z" fill="#CCD1D9"/>
<path d="M34.7074 41C31.1854 41 28.3201 43.8653 28.3201 47.3874C28.3201 50.9095 31.1858 53.7747 34.7074 53.7747C38.2295 53.7747 41.0948 50.9095 41.0948 47.3874C41.0948 43.8653 38.2295 41 34.7074 41Z" fill="#DDDDDD"/>
<path d="M35.2918 41C34.8475 41 34.4153 41.06 34 41.1702C36.5267 41.8386 39.3097 44.4221 39.3097 47.5C39.3097 50.5779 36.5267 53.161 34 53.8298C34.4153 53.94 34.8475 54 35.2918 54C38.4394 54 41 51.0842 41 47.5C41 43.9158 38.4394 41 35.2918 41Z" fill="#CCD1D9"/>
</g>
<defs>
<clipPath id="clip0_6490_72894">
<rect width="70" height="70" fill="white"/>
</clipPath>
</defs>
</svg>
