<svg width="70" height="70" viewBox="0 0 70 70" fill="none" xmlns="http://www.w3.org/2000/svg">
<path d="M61.9998 14.4319V58.3679C61.9896 59.0655 61.842 59.7543 61.5655 60.3949C61.2889 61.0355 60.8888 61.6153 60.3881 62.1012C59.8873 62.5871 59.2957 62.9696 58.6471 63.2267C57.9985 63.4838 57.3055 63.6106 56.6078 63.5998H37.3918C38.1023 63.6007 38.8059 63.4614 39.4624 63.1899C40.1189 62.9184 40.7154 62.5201 41.2178 62.0178C41.7201 61.5154 42.1184 60.9189 42.3899 60.2624C42.6614 59.6059 42.8007 58.9023 42.7998 58.1918V14.6079C42.8007 13.8974 42.6614 13.1938 42.3899 12.5373C42.1184 11.8808 41.7201 11.2843 41.2178 10.7819C40.7154 10.2796 40.1189 9.88128 39.4624 9.6098C38.8059 9.33832 38.1023 9.19901 37.3918 9.19985H56.6078C57.3055 9.18906 57.9985 9.31585 58.6471 9.573C59.2957 9.83014 59.8873 10.2126 60.3881 10.6985C60.8888 11.1844 61.2889 11.7642 61.5655 12.4048C61.842 13.0454 61.9896 13.7342 61.9998 14.4319Z" fill="#E6E9ED"/>
<path d="M44.392 9.2002H10.408C7.42124 9.2002 5 11.6214 5 14.6082V58.1922C5 61.179 7.42124 63.6002 10.408 63.6002H44.392C47.3788 63.6002 49.8 61.179 49.8 58.1922V14.6082C49.8 11.6214 47.3788 9.2002 44.392 9.2002Z" fill="white"/>
<path d="M42.93 9H11.07C8.26992 9 6 11.4479 6 14.4676V58.5324C6 61.552 8.26992 64 11.07 64H42.93C45.7301 64 48 61.552 48 58.5324V14.4676C48 11.4479 45.7301 9 42.93 9Z" fill="#F2F2F2"/>
<path d="M30.1379 26.9135H34.9655V22.0859H30.1379V26.9135Z" fill="#F0C419"/>
<path d="M19.2759 26.9135H24.1036V22.0859H19.2759V26.9135Z" fill="#ED5565"/>
<path d="M27.4 40.4002C26.9757 40.4002 26.5687 40.2316 26.2687 39.9316C25.9686 39.6315 25.8 39.2245 25.8 38.8002C25.8 38.3758 25.9686 37.9689 26.2687 37.6688C26.5687 37.3688 26.9757 37.2002 27.4 37.2002C27.8244 37.2002 28.2314 37.3688 28.5314 37.6688C28.8315 37.9689 29 38.3758 29 38.8002C29 39.2245 28.8315 39.6315 28.5314 39.9316C28.2314 40.2316 27.8244 40.4002 27.4 40.4002Z" fill="#27AE60"/>
<path d="M27.4 46.7996C26.9757 46.7996 26.5687 46.631 26.2687 46.331C25.9686 46.0309 25.8 45.624 25.8 45.1996C25.8 44.7753 25.9686 44.3683 26.2687 44.0682C26.5687 43.7682 26.9757 43.5996 27.4 43.5996C27.8244 43.5996 28.2314 43.7682 28.5314 44.0682C28.8315 44.3683 29 44.7753 29 45.1996C29 45.624 28.8315 46.0309 28.5314 46.331C28.2314 46.631 27.8244 46.7996 27.4 46.7996Z" fill="#27AE60"/>
<path d="M27.4 53.2C26.9757 53.2 26.5687 53.0314 26.2687 52.7314C25.9686 52.4313 25.8 52.0243 25.8 51.6C25.8 51.1757 25.9686 50.7687 26.2687 50.4686C26.5687 50.1686 26.9757 50 27.4 50C27.8244 50 28.2314 50.1686 28.5314 50.4686C28.8315 50.7687 29 51.1757 29 51.6C29 52.0243 28.8315 52.4313 28.5314 52.7314C28.2314 53.0314 27.8244 53.2 27.4 53.2Z" fill="#27AE60"/>
<path d="M9.80005 6H16.2V9.2H9.80005V6Z" fill="#E5E3E3"/>
</svg>
