<svg width="63" height="63" viewBox="0 0 63 63" fill="none" xmlns="http://www.w3.org/2000/svg">
<path d="M61.625 25.7188V32.2812C61.625 49.1906 47.9094 62.9062 31 62.9062C14.0906 62.9062 0.375 49.1906 0.375 32.2812V25.7188C0.375 42.6281 14.0906 56.3438 31 56.3438C47.9094 56.3438 61.625 42.6281 61.625 25.7188Z" fill="#CCD1D9"/>
<path opacity="0.7" d="M31 8.84375C43.0641 8.84375 52.875 18.6438 52.875 30.7188C52.875 42.7828 43.0641 52.5938 31 52.5938C18.9359 52.5938 9.125 42.7828 9.125 30.7188C9.125 18.6438 18.9359 8.84375 31 8.84375ZM44.125 30.7188C44.125 23.4781 38.2406 17.5938 31 17.5938C23.7594 17.5938 17.875 23.4781 17.875 30.7188C17.875 37.9594 23.7594 43.8438 31 43.8438C38.2406 43.8438 44.125 37.9594 44.125 30.7188Z" fill="white"/>
<path d="M62.25 31.125C62.25 48.3104 48.3104 62.25 31.125 62.25C13.9396 62.25 0 48.3104 0 31.125C0 13.9396 13.9396 0 31.125 0C48.3104 0 62.25 13.9396 62.25 31.125ZM53.3571 31.125C53.3571 18.8529 43.386 8.89286 31.125 8.89286C18.864 8.89286 8.89286 18.8529 8.89286 31.125C8.89286 43.386 18.864 53.3571 31.125 53.3571C43.386 53.3571 53.3571 43.386 53.3571 31.125Z" fill="#E6E9ED"/>
<path d="M31.125 22C36.1583 22 40.25 26.0917 40.25 31.125C40.25 36.1583 36.1583 40.25 31.125 40.25C26.0917 40.25 22 36.1583 22 31.125C22 26.0917 26.0917 22 31.125 22Z" fill="#E6E9ED" stroke="#E6E9ED" stroke-width="2"/>
<path d="M22.4257 16.3762C23.7898 15.5689 25.2751 14.9455 26.8474 14.5401L27.097 15.5085C28.3838 15.1767 29.7334 15 31.125 15C32.5166 15 33.8662 15.1767 35.153 15.5085L35.4026 14.5401C36.9749 14.9455 38.4602 15.5689 39.8243 16.3762L39.315 17.2368C41.6602 18.6246 43.6254 20.5898 45.0132 22.935L45.8738 22.4257C46.6811 23.7898 47.3045 25.2751 47.7099 26.8474L46.7415 27.097C47.0733 28.3838 47.25 29.7334 47.25 31.125C47.25 32.5166 47.0733 33.8662 46.7415 35.153L47.7099 35.4026C47.3045 36.9749 46.6811 38.4602 45.8738 39.8243L45.0133 39.315C43.6254 41.6602 41.6602 43.6254 39.315 45.0132L39.8243 45.8738C38.4602 46.6811 36.9749 47.3045 35.4026 47.7099L35.153 46.7415C33.8662 47.0733 32.5166 47.25 31.125 47.25C29.7334 47.25 28.3838 47.0733 27.097 46.7415L26.8474 47.7099C25.2751 47.3045 23.7898 46.6811 22.4257 45.8738L22.935 45.0133C20.5898 43.6254 18.6246 41.6602 17.2368 39.315L16.3762 39.8243C15.5689 38.4602 14.9455 36.9749 14.5401 35.4026L15.5085 35.153C15.1767 33.8662 15 32.5166 15 31.125C15 29.7334 15.1767 28.3838 15.5085 27.097L14.5401 26.8474C14.9455 25.2751 15.5689 23.7898 16.3762 22.4257L17.2368 22.935C18.6246 20.5898 20.5898 18.6246 22.935 17.2368L22.4257 16.3762Z" stroke="#E6E9ED" stroke-width="2" stroke-dasharray="9 5"/>
<path d="M31.4373 58.8728C30.6099 58.8728 29.9336 58.2023 29.9336 57.3728C29.9336 56.5433 30.5949 55.8728 31.4209 55.8728H31.4373C32.2633 55.8728 32.9336 56.5433 32.9336 57.3728C32.9336 58.2023 32.2633 58.8728 31.4373 58.8728Z" fill="#ED5565"/>
</svg>
