<svg width="70" height="70" viewBox="0 0 70 70" fill="none" xmlns="http://www.w3.org/2000/svg">
<path d="M65.625 26.7188V33.2812C65.625 50.1906 51.9094 63.9062 35 63.9062C18.0906 63.9062 4.375 50.1906 4.375 33.2812V26.7188C4.375 43.6281 18.0906 57.3438 35 57.3438C51.9094 57.3438 65.625 43.6281 65.625 26.7188Z" fill="#CCD1D9"/>
<path opacity="0.7" d="M35 7C48.7875 7 60 18.2 60 32C60 45.7875 48.7875 57 35 57C21.2125 57 10 45.7875 10 32C10 18.2 21.2125 7 35 7ZM50 31.5C50 23.225 43.275 16.5 35 16.5C26.725 16.5 20 23.225 20 31.5C20 39.775 26.725 46.5 35 46.5C43.275 46.5 50 39.775 50 31.5Z" fill="white"/>
<path d="M66 32C66 49.1164 52.1164 63 35 63C17.8836 63 4 49.1164 4 32C4 14.8836 17.8836 1 35 1C52.1164 1 66 14.8836 66 32ZM57.1429 32C57.1429 19.7771 47.2118 9.85714 35 9.85714C22.7882 9.85714 12.8571 19.7771 12.8571 32C12.8571 44.2118 22.7882 54.1429 35 54.1429C47.2118 54.1429 57.1429 44.2118 57.1429 32Z" fill="#E6E9ED"/>
<path d="M35 12C46.0333 12 55 20.9667 55 32C55 43.0333 46.0333 52 35 52C23.9667 52 15 43.0333 15 32C15 20.9667 23.9667 12 35 12Z" fill="#F2F2F2"/>
<path d="M26.3035 34.273V36H19.4065V34.636L23.2895 30.027H19.5055V28.3H26.1385V29.664L22.2555 34.273H26.3035ZM31.0759 36.154C30.2619 36.154 29.5285 35.9817 28.8759 35.637C28.2305 35.2923 27.7209 34.8157 27.3469 34.207C26.9802 33.5983 26.7969 32.9127 26.7969 32.15C26.7969 31.3873 26.9802 30.7017 27.3469 30.093C27.7209 29.4843 28.2305 29.0077 28.8759 28.663C29.5285 28.3183 30.2619 28.146 31.0759 28.146C31.8899 28.146 32.6195 28.3183 33.2649 28.663C33.9175 29.0077 34.4272 29.4843 34.7939 30.093C35.1679 30.7017 35.3549 31.3873 35.3549 32.15C35.3549 32.9127 35.1679 33.5983 34.7939 34.207C34.4272 34.8157 33.9175 35.2923 33.2649 35.637C32.6195 35.9817 31.8899 36.154 31.0759 36.154ZM31.0759 34.35C31.4645 34.35 31.8165 34.2583 32.1319 34.075C32.4472 33.8917 32.6965 33.635 32.8799 33.305C33.0632 32.9677 33.1549 32.5827 33.1549 32.15C33.1549 31.7173 33.0632 31.336 32.8799 31.006C32.6965 30.6687 32.4472 30.4083 32.1319 30.225C31.8165 30.0417 31.4645 29.95 31.0759 29.95C30.6872 29.95 30.3352 30.0417 30.0199 30.225C29.7045 30.4083 29.4552 30.6687 29.2719 31.006C29.0885 31.336 28.9969 31.7173 28.9969 32.15C28.9969 32.5827 29.0885 32.9677 29.2719 33.305C29.4552 33.635 29.7045 33.8917 30.0199 34.075C30.3352 34.2583 30.6872 34.35 31.0759 34.35ZM43.8216 28.3V36H42.0286L38.6296 31.897V36H36.4956V28.3H38.2886L41.6876 32.403V28.3H43.8216ZM51.5399 34.317V36H45.3579V28.3H51.3969V29.983H47.5139V31.281H50.9349V32.909H47.5139V34.317H51.5399Z" fill="#27AE60"/>
</svg>
