<svg width="16" height="16" viewBox="0 0 16 16" fill="none" xmlns="http://www.w3.org/2000/svg">
<path fill-rule="evenodd" clip-rule="evenodd" d="M11.6645 8.0001L5.45162 1.95856C5.25365 1.76605 5.24922 1.44949 5.44173 1.25152C5.63425 1.05355 5.9508 1.04912 6.14877 1.24164L12.4199 7.33986C12.42 7.33995 12.4201 7.34004 12.4202 7.34013C12.508 7.42542 12.5784 7.52745 12.6267 7.64077C12.6751 7.75424 12.7002 7.87639 12.7002 8.0001C12.7002 8.12381 12.6751 8.24595 12.6267 8.35943C12.5784 8.47275 12.508 8.57478 12.4202 8.66007C12.4201 8.66016 12.42 8.66025 12.4199 8.66033L6.14877 14.7586C5.9508 14.9511 5.63425 14.9466 5.44173 14.7487C5.24922 14.5507 5.25365 14.2341 5.45162 14.0416L11.6645 8.0001ZM11.723 7.94315C11.7231 7.94307 11.7232 7.94299 11.7233 7.94292L11.723 7.94315Z" fill="#1E2323"/>
</svg>
