<svg width="16" height="16" viewBox="0 0 16 16" fill="none" xmlns="http://www.w3.org/2000/svg">
<path fill-rule="evenodd" clip-rule="evenodd" d="M4.33552 7.9999L10.5484 14.0414C10.7464 14.234 10.7508 14.5505 10.5583 14.7485C10.3658 14.9465 10.0492 14.9509 9.85123 14.7584L3.58007 8.66014C3.57998 8.66005 3.57989 8.65996 3.5798 8.65987C3.49203 8.57458 3.42162 8.47255 3.37329 8.35923C3.32491 8.24576 3.2998 8.12361 3.2998 7.9999C3.2998 7.87619 3.32491 7.75405 3.37329 7.64057C3.42162 7.52725 3.49203 7.42522 3.5798 7.33993C3.57989 7.33984 3.57998 7.33975 3.58007 7.33967L9.85123 1.24144C10.0492 1.04893 10.3658 1.05335 10.5583 1.25133C10.7508 1.4493 10.7464 1.76585 10.5484 1.95836L4.33552 7.9999ZM4.27695 8.05685C4.27687 8.05693 4.27679 8.05701 4.27672 8.05708L4.27695 8.05685Z" fill="#1E2323"/>
</svg>
