<svg width="16" height="16" viewBox="2 1 12 12" fill="none" xmlns="http://www.w3.org/2000/svg">
<g id="Layer_2" clip-path="url(#clip0_4433_72645)">

<path d="M3.6262 5.85508L2.39345 10H1.40039L3.08454 5H3.71648L3.6262 5.85508ZM4.65039 10L3.41452 5.85508L3.3149 5H3.95307L5.64656 10H4.65039ZM4.59436 8.13874V8.94574H2.20044V8.13874H4.59436Z" fill="white"/>
<path d="M7.70738 5V10H6.77659V5H7.70738ZM9.10202 5V5.80701H5.40374V5H9.10202Z" fill="white"/>
<path d="M10.0608 5H10.6515L12.0158 8.67102L13.1801 5H13.9708L12.3333 10H11.6983L10.0608 5ZM9.63435 5H10.4219L10.5651 8.5783V10H9.63435V5ZM13.6097 5H14.4004V10H13.4665V8.5783L13.6097 5Z" fill="white"/>
<path d="M3.6262 5.85508L2.39345 10H1.40039L3.08454 5H3.71648L3.6262 5.85508ZM4.65039 10L3.41452 5.85508L3.3149 5H3.95307L5.64656 10H4.65039ZM4.59436 8.13874V8.94574H2.20044V8.13874H4.59436Z" stroke="white" stroke-width="0.6"/>
<path d="M7.70738 5V10H6.77659V5H7.70738ZM9.10202 5V5.80701H5.40374V5H9.10202Z" stroke="white" stroke-width="0.6"/>
<path d="M10.0608 5H10.6515L12.0158 8.67102L13.1801 5H13.9708L12.3333 10H11.6983L10.0608 5ZM9.63435 5H10.4219L10.5651 8.5783V10H9.63435V5ZM13.6097 5H14.4004V10H13.4665V8.5783L13.6097 5Z" stroke="white" stroke-width="0.6"/>
</g>
<defs>
<clipPath id="clip0_4433_72645">
<rect width="14" height="14" fill="white" transform="translate(0.400391 0.0799561)"/>
</clipPath>
</defs>
</svg>
