<svg width="16" height="16" viewBox="3 3 10 10" fill="none" xmlns="http://www.w3.org/2000/svg">
<g id="Layer_2" clip-path="url(#clip0_3933_45780)">
<g id="Currency Icon">
<g id="Dollar">
<g id="Coin">
<g id="Bottom">
</g>
</g>
<g id="Icon">
<path id="Top" d="M8.86478 9.4839C8.86478 9.21039 8.79701 8.99571 8.66183 8.84022C8.52664 8.68438 8.28857 8.53729 7.94868 8.39896C7.60843 8.26063 7.29452 8.12055 7.00659 7.97836C6.71866 7.83653 6.47041 7.67194 6.26219 7.48528C6.05397 7.29827 5.8942 7.08219 5.78325 6.83634C5.67229 6.5905 5.61681 6.29283 5.61681 5.94332C5.61681 5.35848 5.8145 4.87624 6.21022 4.49732C6.60595 4.1184 7.13335 3.89777 7.79277 3.83543V2.73999H8.62039V3.8561C9.25559 3.9496 9.7542 4.21015 10.1169 4.6374C10.4796 5.065 10.6608 5.60747 10.6608 6.26516H8.9013C8.9013 5.90515 8.83177 5.62849 8.69308 5.43447C8.55438 5.24081 8.35634 5.1438 8.09966 5.1438C7.87073 5.1438 7.6927 5.21559 7.56594 5.35918C7.43918 5.50276 7.37598 5.70098 7.37598 5.95348C7.37598 6.20597 7.44902 6.41295 7.59474 6.56353C7.74046 6.71412 7.97466 6.85771 8.29735 6.99429C8.62004 7.13122 8.92447 7.27305 9.211 7.42014C9.49717 7.56722 9.74472 7.73427 9.95294 7.92128C10.1612 8.10829 10.3241 8.32612 10.4424 8.57547C10.5604 8.82481 10.6194 9.12424 10.6194 9.47374C10.6194 10.0656 10.4312 10.5485 10.0544 10.9222C9.67765 11.2959 9.165 11.514 8.51611 11.5764V12.62H7.68849V11.5711C6.9318 11.4913 6.35138 11.2328 5.94723 10.7951C5.54272 10.3573 5.34082 9.78017 5.34082 9.06365H7.09508C7.09508 9.45833 7.18251 9.75846 7.35807 9.96438C7.53329 10.1703 7.78224 10.2733 8.10493 10.2733C8.34089 10.2733 8.52664 10.2032 8.66183 10.0631C8.79701 9.92306 8.86478 9.73009 8.86478 9.48425V9.4839Z" fill="white"/>
</g>
</g>
</g>
</g>
<defs>
<clipPath id="clip0_3933_45780">
<rect width="15.2" height="15.2" fill="white" transform="translate(0.400391 0.0799561)"/>
</clipPath>
</defs>
</svg>
