<svg width="12" height="12" viewBox="0 0 12 12" fill="none" xmlns="http://www.w3.org/2000/svg">
<g id="Frame">
<path id="Vector" fill-rule="evenodd" clip-rule="evenodd" d="M10.8558 6.6315C10.8048 6.47813 10.6612 6.375 10.5 6.375H7.49996C7.33871 6.375 7.19509 6.47813 7.14409 6.6315L6.39409 8.8815C6.35621 8.99587 6.37534 9.1215 6.44584 9.21937C6.51634 9.31687 6.62959 9.375 6.74996 9.375H11.25C11.3703 9.375 11.4836 9.31687 11.5541 9.21937C11.6246 9.1215 11.6437 8.99587 11.6058 8.8815L10.8558 6.6315ZM4.85584 6.6315C4.80484 6.47813 4.66121 6.375 4.49996 6.375H1.49996C1.33871 6.375 1.19509 6.47813 1.14409 6.6315L0.394087 8.8815C0.356212 8.99587 0.375337 9.1215 0.445837 9.21937C0.516337 9.31687 0.629587 9.375 0.749962 9.375H5.24996C5.37034 9.375 5.48359 9.31687 5.55409 9.21937C5.62459 9.1215 5.64371 8.99587 5.60584 8.8815L4.85584 6.6315ZM7.85584 2.8815C7.80484 2.72813 7.66121 2.625 7.49996 2.625H4.49996C4.33871 2.625 4.19509 2.72813 4.14409 2.8815L3.39409 5.1315C3.35621 5.24588 3.37534 5.3715 3.44584 5.46938C3.51634 5.56687 3.62959 5.625 3.74996 5.625H8.24996C8.37034 5.625 8.48359 5.56687 8.55409 5.46938C8.62459 5.3715 8.64371 5.24588 8.60584 5.1315L7.85584 2.8815Z" fill="white"/>
</g>
</svg>
