<svg width="10" height="10" viewBox="0 0 10 10" fill="none" xmlns="http://www.w3.org/2000/svg">
<g id="Frame" clip-path="url(#clip0_5305_68710)">
<path id="Vector" d="M9.73039 4.34952C9.73016 4.34929 9.72993 4.34906 9.7297 4.34883L5.65049 0.269775C5.47662 0.0958252 5.24545 0 4.99955 0C4.75366 0 4.52249 0.0957489 4.34854 0.269699L0.271464 4.34669C0.270091 4.34807 0.268718 4.34952 0.267344 4.35089C-0.0897114 4.71001 -0.0891011 5.29266 0.269099 5.65086C0.43275 5.81459 0.64889 5.90942 0.879985 5.91934C0.889369 5.92026 0.898829 5.92072 0.908366 5.92072H1.07095V8.92265C1.07095 9.51668 1.55427 10 2.14845 10H3.74436C3.90611 10 4.03733 9.86885 4.03733 9.70703V7.35352C4.03733 7.08244 4.25782 6.86195 4.52889 6.86195H5.47021C5.74128 6.86195 5.96177 7.08244 5.96177 7.35352V9.70703C5.96177 9.86885 6.09292 10 6.25474 10H7.85066C8.44483 10 8.92816 9.51668 8.92816 8.92265V5.92072H9.07891C9.32473 5.92072 9.5559 5.82497 9.72993 5.65102C10.0885 5.29221 10.0887 4.70856 9.73039 4.34952Z" fill="white"/>
</g>
<defs>
<clipPath id="clip0_5305_68710">
<rect width="10" height="10" fill="white"/>
</clipPath>
</defs>
</svg>
