<svg width="10" height="10" viewBox="0 0 10 10" fill="none" xmlns="http://www.w3.org/2000/svg">
<g id="Frame" clip-path="url(#clip0_5305_68782)">
<path id="Vector" d="M9.97385 3.83562C9.90801 3.63313 9.72841 3.48977 9.51677 3.47062L6.63006 3.20855L5.48922 0.537603C5.40499 0.341372 5.21334 0.214722 5.00001 0.214722C4.78669 0.214722 4.59496 0.341372 4.51127 0.537603L3.37042 3.20855L0.48326 3.47062C0.271617 3.49015 0.0923996 3.63351 0.0261753 3.83562C-0.0396675 4.0381 0.0211398 4.2602 0.181207 4.40058L2.36333 6.31399L1.71993 9.14775C1.67286 9.35611 1.75373 9.57157 1.92661 9.69654C2.01954 9.76406 2.12872 9.79778 2.23828 9.79778C2.33243 9.79778 2.42665 9.77276 2.51081 9.7224L5.00001 8.23404L7.48876 9.7224C7.67134 9.8315 7.90091 9.82151 8.07341 9.69654C8.2463 9.57157 8.32717 9.35611 8.2801 9.14775L7.6367 6.31399L9.81882 4.40058C9.97881 4.2602 10.0397 4.03856 9.97385 3.83562Z" fill="white"/>
</g>
<defs>
<clipPath id="clip0_5305_68782">
<rect width="10" height="10" fill="white"/>
</clipPath>
</defs>
</svg>
