<svg width="24" height="24" viewBox="0 0 24 24" fill="none" xmlns="http://www.w3.org/2000/svg">
<path d="M15.0259 12.4504C15.0259 14.2321 13.5861 15.6719 11.8044 15.6719C10.0227 15.6719 8.58301 14.2321 8.58301 12.4504C8.58301 10.6687 10.0227 9.229 11.8044 9.229C13.5861 9.229 15.0259 10.6687 15.0259 12.4504Z" stroke="#8B8C9B" stroke-width="1.5" stroke-linecap="round" stroke-linejoin="round"/>
<path d="M11.805 19.8925C14.9815 19.8925 17.942 18.0208 20.0026 14.7813C20.8125 13.5126 20.8125 11.3799 20.0026 10.1111C17.942 6.87168 14.9815 5 11.805 5C8.62853 5 5.66804 6.87168 3.6074 10.1111C2.79753 11.3799 2.79753 13.5126 3.6074 14.7813C5.66804 18.0208 8.62853 19.8925 11.805 19.8925Z" stroke="#8B8C9B" stroke-width="1.5" stroke-linecap="round" stroke-linejoin="round"/>
</svg>
