<svg width="24" height="24" viewBox="0 0 24 24" fill="none" xmlns="http://www.w3.org/2000/svg">
<path d="M6.00001 5.00001V7.00001M10 5.00001V7.00001M6.00001 17V19M10 17V19M14 6.00001H18M14 18H18M19.32 10H4.69001C3.21001 10 2.01001 8.79001 2.01001 7.32001V4.69001C2.01001 3.21001 3.22001 2.01001 4.69001 2.01001H19.32C20.8 2.01001 22 3.22001 22 4.69001V7.32001C22 8.79001 20.79 10 19.32 10ZM19.32 22H4.69001C3.21001 22 2.01001 20.79 2.01001 19.32V16.69C2.01001 15.21 3.22001 14.01 4.69001 14.01H19.32C20.8 14.01 22 15.22 22 16.69V19.32C22 20.79 20.79 22 19.32 22Z" stroke="#8B8C9B" stroke-width="1.5" stroke-linecap="round" stroke-linejoin="round"/>
</svg>
