<svg width="24" height="24" viewBox="0 0 24 24" fill="none" xmlns="http://www.w3.org/2000/svg">
<path d="M6.00001 4.99977V6.99977M10 4.99977V6.99977M6.00001 16.9998V18.9998M10 16.9998V18.9998M14 5.99977H18M14 17.9998H18M19.32 9.99977H4.69001C3.21001 9.99977 2.01001 8.78977 2.01001 7.31977V4.68977C2.01001 3.20977 3.22001 2.00977 4.69001 2.00977H19.32C20.8 2.00977 22 3.21977 22 4.68977V7.31977C22 8.78977 20.79 9.99977 19.32 9.99977ZM19.32 21.9998H4.69001C3.21001 21.9998 2.01001 20.7898 2.01001 19.3198V16.6898C2.01001 15.2098 3.22001 14.0098 4.69001 14.0098H19.32C20.8 14.0098 22 15.2198 22 16.6898V19.3198C22 20.7898 20.79 21.9998 19.32 21.9998Z" stroke="#8F0A0C" stroke-width="1.5" stroke-linecap="round" stroke-linejoin="round"/>
</svg>
