<svg width="16" height="16" viewBox="0 0 16 16" fill="none" xmlns="http://www.w3.org/2000/svg">
<path d="M6.14844 8H11.7033H6.14844Z" fill="#8B8C9B"/>
<path d="M6.14844 8H11.7033" stroke="#8B8C9B" stroke-linecap="round" stroke-linejoin="round"/>
<path d="M6.14844 10.5801H11.7033H6.14844Z" fill="#8B8C9B"/>
<path d="M6.14844 10.5801H11.7033" stroke="#8B8C9B" stroke-linecap="round" stroke-linejoin="round"/>
<path d="M6.14844 5.39551H11.7033H6.14844Z" fill="#8B8C9B"/>
<path d="M6.14844 5.39551H11.7033" stroke="#8B8C9B" stroke-linecap="round" stroke-linejoin="round"/>
<path fill-rule="evenodd" clip-rule="evenodd" d="M3.74023 5.39607C3.74023 5.08294 3.99102 4.80273 4.33283 4.80273C4.66407 4.80273 4.91554 5.0681 4.92655 5.37624C4.92678 5.38285 4.9269 5.38946 4.9269 5.39607C4.9269 5.72999 4.65398 5.98866 4.33357 5.98866C4.02045 5.98866 3.74023 5.73788 3.74023 5.39607Z" fill="#8B8C9B"/>
<path fill-rule="evenodd" clip-rule="evenodd" d="M3.74023 7.99958C3.74023 7.68646 3.99102 7.40625 4.33283 7.40625C4.64633 7.40625 4.9269 7.65814 4.9269 7.99958C4.9269 8.32716 4.66113 8.59292 4.33357 8.59292C4.00601 8.59292 3.74023 8.32716 3.74023 7.99958Z" fill="#8B8C9B"/>
<path fill-rule="evenodd" clip-rule="evenodd" d="M3.74023 10.5816C3.74023 10.2685 3.99102 9.98828 4.33283 9.98828C4.66407 9.98828 4.91554 10.2536 4.92655 10.5618C4.92678 10.5684 4.9269 10.575 4.9269 10.5816C4.9269 10.9155 4.65398 11.1742 4.33357 11.1742C4.02045 11.1742 3.74023 10.9234 3.74023 10.5816Z" fill="#8B8C9B"/>
<path d="M14.6663 4.29597V11.7034C14.6663 13.3397 13.3397 14.6663 11.7034 14.6663H4.29597C2.65967 14.6663 1.33301 13.3397 1.33301 11.7034V4.29597C1.33301 2.65967 2.65967 1.33301 4.29597 1.33301H11.7034C13.3397 1.33301 14.6663 2.65967 14.6663 4.29597Z" stroke="#8B8C9B" stroke-linecap="round" stroke-linejoin="round"/>
</svg>
