<svg width="20" height="20" viewBox="0 0 20 20" fill="none" xmlns="http://www.w3.org/2000/svg">
<g clip-path="url(#clip0)">
<path d="M19.6641 8.94078L10.6908 0.764316C10.2969 0.405371 9.70295 0.40541 9.30924 0.764277L0.33586 8.94082C0.0203532 9.22832 -0.0838653 9.67129 0.070275 10.0693C0.224454 10.4673 0.599844 10.7245 1.02668 10.7245H2.45988V18.9167C2.45988 19.2415 2.72324 19.5048 3.04804 19.5048H7.96655H8.55471H11.4454L11.5 19.5C11.5 19.5 11.7088 19.5049 12.0336 19.5049H16.9518C17.2766 19.5049 17.54 19.2415 17.54 18.9167V10.7245H18.9735C19.4003 10.7245 19.7757 10.4673 19.9299 10.0693C20.0838 9.67125 19.9796 9.22832 19.6641 8.94078Z" fill="#03294A"/>
<path d="M17.3864 1.66895H13.4364L17.9745 5.79534V2.25707C17.9745 1.93227 17.7112 1.66895 17.3864 1.66895Z" fill="#03294A"/>
<path d="M9.06066 17L7.62402 11.9583H7.58078C7.64805 12.8169 7.68168 13.484 7.68168 13.9596V17H6V10H8.52733L9.99279 14.9699H10.0312L11.4679 10H14V17H12.2559V13.9309C12.2559 13.7713 12.2575 13.5942 12.2607 13.3995C12.2671 13.2047 12.2895 12.7275 12.3279 11.9679H12.2847L10.8673 17H9.06066Z" fill="white"/>
</g>
<defs>
<clipPath id="clip0">
<rect width="20" height="20" fill="white"/>
</clipPath>
</defs>
</svg>
