<svg width="28" height="28" viewBox="0 0 28 28" fill="none" xmlns="http://www.w3.org/2000/svg">
<g id="Maps-Navigation / Location / location-target">
<g id="Group">
<g id="location-target">
<path id="Union" fill-rule="evenodd" clip-rule="evenodd" d="M14 0.5C14.5523 0.5 15 0.947715 15 1.5V4.71961C19.3559 5.18359 22.8164 8.64411 23.2804 13H26.5C27.0523 13 27.5 13.4477 27.5 14C27.5 14.5523 27.0523 15 26.5 15H23.2804C22.8164 19.3559 19.3559 22.8164 15 23.2804V26.5C15 27.0523 14.5523 27.5 14 27.5C13.4477 27.5 13 27.0523 13 26.5V23.2804C8.64411 22.8164 5.18359 19.3559 4.71961 15H1.5C0.947715 15 0.5 14.5523 0.5 14C0.5 13.4477 0.947715 13 1.5 13H4.71961C5.18359 8.64411 8.64411 5.18359 13 4.71961V1.5C13 0.947715 13.4477 0.5 14 0.5ZM21.3333 14C21.3333 9.94991 18.0501 6.66667 14 6.66667C9.94991 6.66667 6.66667 9.94991 6.66667 14C6.66667 18.0501 9.94991 21.3333 14 21.3333C18.0501 21.3333 21.3333 18.0501 21.3333 14ZM14 9.66667C11.6068 9.66667 9.66667 11.6068 9.66667 14C9.66667 16.3932 11.6068 18.3333 14 18.3333C16.3932 18.3333 18.3333 16.3932 18.3333 14C18.3333 11.6068 16.3932 9.66667 14 9.66667ZM11.6667 14C11.6667 12.7113 12.7113 11.6667 14 11.6667C15.2887 11.6667 16.3333 12.7113 16.3333 14C16.3333 15.2887 15.2887 16.3333 14 16.3333C12.7113 16.3333 11.6667 15.2887 11.6667 14Z" fill="#8B8C9B"/>
</g>
</g>
</g>
</svg>
