<svg width="24" height="24" viewBox="0 0 24 24" fill="none" xmlns="http://www.w3.org/2000/svg">
<path d="M22 8.99953V14.9995C22 17.4995 21.5 19.2495 20.38 20.3795L14 13.9995L21.73 6.26953C21.91 7.05953 22 7.95953 22 8.99953Z" stroke="#8F0A0C" stroke-width="1.5" stroke-linecap="round" stroke-linejoin="round"/>
<path d="M21.73 6.27L6.27 21.73C3.26 21.04 2 18.96 2 15V9C2 4 4 2 9 2H15C18.96 2 21.04 3.26 21.73 6.27Z" stroke="#8F0A0C" stroke-width="1.5" stroke-linecap="round" stroke-linejoin="round"/>
<path d="M20.3795 20.38C19.2495 21.5 17.4995 22 14.9995 22H8.99953C7.95953 22 7.05953 21.91 6.26953 21.73L13.9995 14L20.3795 20.38Z" stroke="#8F0A0C" stroke-width="1.5" stroke-linecap="round" stroke-linejoin="round"/>
<path d="M6.24026 7.97973C6.92026 5.04973 11.3203 5.04973 12.0003 7.97973C12.3903 9.69973 11.3103 11.1597 10.3603 12.0597C10.0257 12.3777 9.5818 12.555 9.12026 12.555C8.65872 12.555 8.21482 12.3777 7.88026 12.0597C6.93026 11.1597 5.84026 9.69973 6.24026 7.97973Z" stroke="#8F0A0C" stroke-width="1.5"/>
<path d="M9.09473 8.7002H9.10373" stroke="#8F0A0C" stroke-width="2" stroke-linecap="round" stroke-linejoin="round"/>
</svg>
