<svg width="24" height="24" viewBox="0 0 24 24" fill="none" xmlns="http://www.w3.org/2000/svg">
<path d="M22 9.00002V15C22 17.5 21.5 19.25 20.38 20.38L14 14L21.73 6.27002C21.91 7.06002 22 7.96002 22 9.00002Z" stroke="#8B8C9B" stroke-width="1.5" stroke-linecap="round" stroke-linejoin="round"/>
<path d="M21.73 6.27L6.27 21.73C3.26 21.04 2 18.96 2 15V9C2 4 4 2 9 2H15C18.96 2 21.04 3.26 21.73 6.27Z" stroke="#8B8C9B" stroke-width="1.5" stroke-linecap="round" stroke-linejoin="round"/>
<path d="M20.3795 20.38C19.2495 21.5 17.4995 22 14.9995 22H8.99953C7.95953 22 7.05953 21.91 6.26953 21.73L13.9995 14L20.3795 20.38Z" stroke="#8B8C9B" stroke-width="1.5" stroke-linecap="round" stroke-linejoin="round"/>
<path d="M6.24026 7.98021C6.92026 5.05021 11.3203 5.05021 12.0003 7.98021C12.3903 9.70021 11.3103 11.1602 10.3603 12.0602C10.0257 12.3782 9.5818 12.5555 9.12026 12.5555C8.65872 12.5555 8.21482 12.3782 7.88026 12.0602C6.93026 11.1602 5.84026 9.70021 6.24026 7.98021Z" stroke="#8B8C9B" stroke-width="1.5"/>
<path d="M9.09473 8.7002H9.10373" stroke="#8B8C9B" stroke-width="2" stroke-linecap="round" stroke-linejoin="round"/>
</svg>
