<svg width="24" height="24" viewBox="0 0 24 24" fill="none" xmlns="http://www.w3.org/2000/svg">
<path d="M10.0703 2.81985L3.14027 8.36985C2.36027 8.98985 1.86027 10.2998 2.03027 11.2798L3.36027 19.2398C3.60027 20.6598 4.96027 21.8098 6.40027 21.8098H17.6003C19.0303 21.8098 20.4003 20.6498 20.6403 19.2398L21.9703 11.2798C22.1303 10.2998 21.6303 8.98985 20.8603 8.36985L13.9303 2.82985C12.8603 1.96985 11.1303 1.96985 10.0703 2.81985Z" stroke="#8F0A0C" stroke-width="1.5" stroke-linecap="round" stroke-linejoin="round"/>
<path d="M12 15.5C12.663 15.5 13.2989 15.2366 13.7678 14.7678C14.2366 14.2989 14.5 13.663 14.5 13C14.5 12.337 14.2366 11.7011 13.7678 11.2322C13.2989 10.7634 12.663 10.5 12 10.5C11.337 10.5 10.7011 10.7634 10.2322 11.2322C9.76339 11.7011 9.5 12.337 9.5 13C9.5 13.663 9.76339 14.2989 10.2322 14.7678C10.7011 15.2366 11.337 15.5 12 15.5Z" stroke="#8F0A0C" stroke-width="1.5" stroke-linecap="round" stroke-linejoin="round"/>
</svg>
