<svg width="24" height="24" viewBox="0 0 24 24" fill="none" xmlns="http://www.w3.org/2000/svg">
<path d="M8.24997 21.6401C6.24997 20.8401 4.49997 19.3901 3.33997 17.3801C2.24501 15.4918 1.80551 13.2943 2.08997 11.1301M5.84997 4.48012C7.60401 3.10339 9.77016 2.35668 12 2.36012C14.27 2.36012 16.36 3.13012 18.04 4.41012M15.75 21.6401C17.75 20.8401 19.5 19.3901 20.66 17.3801C21.7549 15.4918 22.1944 13.2943 21.91 11.1301M16.42 7.95012C17.5917 9.12266 18.2499 10.7125 18.2499 12.3701C18.2499 14.0278 17.5917 15.6176 16.42 16.7901C15.2474 17.9618 13.6576 18.62 12 18.62C10.3423 18.62 8.75251 17.9618 7.57997 16.7901C6.40825 15.6176 5.75005 14.0278 5.75005 12.3701C5.75005 10.7125 6.40825 9.12266 7.57997 7.95012C8.75251 6.7784 10.3423 6.1202 12 6.1202C13.6576 6.1202 15.2474 6.7784 16.42 7.95012Z" stroke="#8F0A0C" stroke-width="1.5" stroke-linecap="round" stroke-linejoin="round"/>
</svg>
