<svg width="24" height="24" viewBox="0 0 24 24" fill="none" xmlns="http://www.w3.org/2000/svg">
<path d="M8.24997 21.6399C6.24997 20.8399 4.49997 19.3899 3.33997 17.3799C2.24501 15.4916 1.80551 13.2941 2.08997 11.1299M5.84997 4.47988C7.60401 3.10314 9.77016 2.35644 12 2.35988C14.27 2.35988 16.36 3.12988 18.04 4.40988M15.75 21.6399C17.75 20.8399 19.5 19.3899 20.66 17.3799C21.7549 15.4916 22.1944 13.2941 21.91 11.1299M16.42 7.94987C17.5917 9.12241 18.2499 10.7122 18.2499 12.3699C18.2499 14.0275 17.5917 15.6173 16.42 16.7899C15.2474 17.9616 13.6576 18.6198 12 18.6198C10.3423 18.6198 8.75251 17.9616 7.57997 16.7899C6.40825 15.6173 5.75005 14.0275 5.75005 12.3699C5.75005 10.7122 6.40825 9.12241 7.57997 7.94987C8.75251 6.77815 10.3423 6.11995 12 6.11995C13.6576 6.11995 15.2474 6.77815 16.42 7.94987Z" stroke="#8B8C9B" stroke-width="1.5" stroke-linecap="round" stroke-linejoin="round"/>
</svg>
