<svg width="40" height="40" viewBox="0 0 40 40" fill="none" xmlns="http://www.w3.org/2000/svg">
<circle cx="20" cy="20" r="19" fill="#08C727" stroke="#08C727" stroke-width="2"/>
<path d="M19.9893 10.0001C19.8578 10.0014 19.7278 10.0287 19.6068 10.0805C19.4859 10.1323 19.3762 10.2075 19.2843 10.3019C19.1923 10.3963 19.1197 10.5081 19.0708 10.6306C19.0218 10.7532 18.9974 10.8843 18.9989 11.0163V19.0544C18.999 19.321 19.1045 19.5768 19.2922 19.7653C19.48 19.9538 19.7345 20.0596 20 20.0596C20.2655 20.0596 20.52 19.9538 20.7078 19.7653C20.8955 19.5768 21.001 19.321 21.0011 19.0544V11.0163C21.0026 10.8825 20.9775 10.7496 20.9272 10.6256C20.8769 10.5016 20.8025 10.3889 20.7082 10.2942C20.6139 10.1995 20.5018 10.1248 20.3783 10.0742C20.2548 10.0237 20.1226 9.9985 19.9893 10.0001ZM25.8238 12.015C25.7912 12.014 25.7586 12.0147 25.7261 12.0169C25.5284 12.0338 25.3402 12.1094 25.1853 12.234C25.0304 12.3586 24.916 12.5267 24.8565 12.7168C24.7971 12.907 24.7952 13.1107 24.8513 13.3018C24.9074 13.493 25.0188 13.6631 25.1714 13.7906C26.9038 15.2682 27.9998 17.4675 27.9998 19.9372C27.9998 24.3967 24.4347 27.991 20.0049 27.991C15.5751 27.991 12.0021 24.3967 12.0021 19.9372C12.0022 17.4818 13.0842 15.2974 14.7993 13.82C14.8992 13.7343 14.9814 13.6297 15.041 13.5121C15.1007 13.3946 15.1367 13.2664 15.1471 13.1348C15.1574 13.0033 15.1419 12.8711 15.1013 12.7456C15.0607 12.6201 14.996 12.5038 14.9107 12.4035C14.8254 12.3031 14.7212 12.2206 14.6042 12.1607C14.4872 12.1007 14.3595 12.0645 14.2286 12.0541C14.0976 12.0437 13.9659 12.0594 13.8409 12.1001C13.716 12.1408 13.6003 12.2059 13.5003 12.2916C11.3594 14.1359 10 16.885 10 19.9372C9.99999 25.4806 14.4923 30 20.0049 30C25.5175 30 30 25.4806 30 19.9372C30 16.8672 28.6272 14.1068 26.4645 12.2622C26.2866 12.1064 26.0597 12.0189 25.8238 12.015Z" fill="white"/>
</svg>
