<svg width="24" height="24" viewBox="0 0 24 24" fill="none" xmlns="http://www.w3.org/2000/svg">
<path d="M12.92 2.25984L19.43 5.76984C20.19 6.17984 20.19 7.34984 19.43 7.75984L12.92 11.2698C12.34 11.5798 11.66 11.5798 11.08 11.2698L4.57 7.75984C3.81 7.34984 3.81 6.17984 4.57 5.76984L11.08 2.25984C11.66 1.94984 12.34 1.94984 12.92 2.25984ZM3.61 10.1298L9.66 13.1598C10.41 13.5398 10.89 14.3098 10.89 15.1498V20.8698C10.89 21.6998 10.02 22.2298 9.28 21.8598L3.23 18.8298C2.86136 18.6439 2.55136 18.3596 2.33428 18.0084C2.1172 17.6571 2.0015 17.2527 2 16.8398V11.1198C2 10.2898 2.87 9.75984 3.61 10.1298ZM20.39 10.1298L14.34 13.1598C13.59 13.5398 13.11 14.3098 13.11 15.1498V20.8698C13.11 21.6998 13.98 22.2298 14.72 21.8598L20.77 18.8298C21.52 18.4498 22 17.6798 22 16.8398V11.1198C22 10.2898 21.13 9.75984 20.39 10.1298Z" stroke="#8F0A0C" stroke-width="1.5" stroke-linecap="round" stroke-linejoin="round"/>
</svg>
