<svg width="16" height="16" viewBox="0 0 16 16" fill="none" xmlns="http://www.w3.org/2000/svg">
<g clip-path="url(#clip0)">
<path d="M15.6284 13.2068C15.6281 13.2068 15.6279 13.2068 15.6276 13.2068H14.6728V5.83348H15.3306C15.5342 5.83348 15.7051 5.68447 15.7051 5.48089V3.79684C15.7039 3.64882 15.6149 3.51566 15.4786 3.45792L8.22912 0.353998C8.13622 0.314292 8.03108 0.314292 7.93818 0.353998L0.696479 3.45792C0.562323 3.51673 0.476645 3.6504 0.479263 3.79684V5.48089C0.474433 5.67083 0.624516 5.82873 0.814452 5.83356C0.821161 5.83374 0.827834 5.8337 0.834544 5.83348H1.51152V13.2068H0.37235C0.16918 13.2043 0.00247005 13.367 0 13.5702C0 13.5704 0 13.5707 0 13.5709V15.3243C0 15.5279 0.168627 15.6768 0.37235 15.6768H15.6276C15.8313 15.6768 16 15.5279 16 15.3243V13.5709C15.9979 13.3677 15.8316 13.2047 15.6284 13.2068ZM1.21659 5.09615V4.04001L8.09217 1.09394L14.9677 4.04001V5.09615H1.21659ZM13.9355 5.83348V13.2068H12.129V5.83348H13.9355ZM11.3917 5.83348V13.2068H9.62212V5.83348H11.3917ZM8.88479 5.83348V13.2068H7.11521V5.83348H8.88479ZM6.37788 5.83348V13.2068H4.60829V5.83348H6.37788ZM3.87097 5.83348V13.2068H2.24885V5.83348H3.87097ZM15.2627 14.9395H0.737327V13.9441H15.2627V14.9395Z" fill="#8F0A0C" stroke="#8F0A0C" stroke-width="0.2"/>
</g>
<defs>
<clipPath id="clip0">
<rect width="16" height="16" fill="white"/>
</clipPath>
</defs>
</svg>
