<svg width="20" height="20" viewBox="0 0 20 20" fill="none" xmlns="http://www.w3.org/2000/svg">
<path d="M2.5083 9.3501V13.0918C2.5083 16.8334 4.0083 18.3334 7.74997 18.3334H12.2416C15.9833 18.3334 17.4833 16.8334 17.4833 13.0918V9.3501" stroke="#8B8C9B" stroke-width="1.5" stroke-linecap="round" stroke-linejoin="round"/>
<path d="M9.99999 10.0001C11.525 10.0001 12.65 8.75841 12.5 7.23341L11.95 1.66675H8.05832L7.49999 7.23341C7.34999 8.75841 8.47499 10.0001 9.99999 10.0001Z" stroke="#8B8C9B" stroke-width="1.5" stroke-linecap="round" stroke-linejoin="round"/>
<path d="M15.2584 10.0001C16.9417 10.0001 18.175 8.63342 18.0084 6.95842L17.775 4.66675C17.475 2.50008 16.6417 1.66675 14.4584 1.66675H11.9167L12.5 7.50842C12.6417 8.88342 13.8834 10.0001 15.2584 10.0001ZM4.70002 10.0001C6.07502 10.0001 7.31669 8.88342 7.45002 7.50842L7.63336 5.66675L8.03336 1.66675H5.49169C3.30836 1.66675 2.47502 2.50008 2.17502 4.66675L1.95002 6.95842C1.78336 8.63342 3.01669 10.0001 4.70002 10.0001ZM10 14.1667C8.60836 14.1667 7.91669 14.8584 7.91669 16.2501V18.3334H12.0834V16.2501C12.0834 14.8584 11.3917 14.1667 10 14.1667Z" stroke="#8B8C9B" stroke-width="1.5" stroke-linecap="round" stroke-linejoin="round"/>
</svg>
