<svg width="24" height="24" viewBox="0 0 24 24" fill="none" xmlns="http://www.w3.org/2000/svg">
<path d="M19.54 6.54L16.47 3.47C16.0055 3.00431 15.4538 2.63477 14.8464 2.38253C14.2389 2.13029 13.5877 2.0003 12.93 2H8C5 2 3 4 3 7V17C3 20 5 22 8 22H16C19 22 21 20 21 17V10.07C21 8.74 20.47 7.47 19.54 6.54Z" stroke="#8B8C9B" stroke-width="1.5" stroke-linecap="round" stroke-linejoin="round"/>
<path d="M12 9.5V18.5M7.5 14H16.5M10 18.5H14C15.65 18.5 17 17.15 17 15.5V12.5C17 10.85 15.65 9.5 14 9.5H10C8.35 9.5 7 10.85 7 12.5V15.5C7 17.15 8.35 18.5 10 18.5Z" stroke="#8B8C9B" stroke-width="1.5" stroke-linecap="round" stroke-linejoin="round"/>
</svg>
