<svg width="40" height="40" viewBox="0 0 40 40" fill="none" xmlns="http://www.w3.org/2000/svg">
<circle cx="20" cy="20" r="19.25" stroke="#8B8C9B" stroke-width="1.5"/>
<path d="M25.2425 30.75H14.7625C11.9625 30.75 10.1825 29.08 10.0225 26.29L9.50252 18.04C9.46061 17.4267 9.54652 16.8114 9.75481 16.233C9.96309 15.6546 10.2892 15.1258 10.7125 14.68C11.5625 13.77 12.7625 13.25 14.0025 13.25C14.3225 13.25 14.6325 13.06 14.7825 12.76L15.5025 11.33C16.0925 10.16 17.5725 9.25 18.8625 9.25H21.1525C22.4425 9.25 23.9125 10.16 24.5025 11.32L25.2225 12.78C25.3725 13.06 25.6725 13.25 26.0025 13.25C27.2425 13.25 28.4425 13.77 29.2925 14.68C30.1525 15.6 30.5825 16.79 30.5025 18.04L29.9825 26.3C29.8025 29.13 28.0725 30.75 25.2425 30.75ZM18.8625 10.75C18.1225 10.75 17.1825 11.33 16.8425 12L16.1225 13.44C15.7025 14.25 14.8925 14.75 14.0025 14.75C13.1625 14.75 12.3825 15.09 11.8025 15.7C11.2325 16.31 10.9425 17.11 11.0025 17.94L11.5225 26.2C11.6425 28.22 12.7325 29.25 14.7625 29.25H25.2425C27.2625 29.25 28.3525 28.22 28.4825 26.2L29.0025 17.94C29.0295 17.5318 28.9724 17.1223 28.8348 16.737C28.6972 16.3517 28.482 15.9988 28.2025 15.7C27.6225 15.09 26.8425 14.75 26.0025 14.75C25.1125 14.75 24.3025 14.25 23.8825 13.46L23.1525 12C22.8225 11.34 21.8825 10.76 21.1425 10.76H18.8625V10.75Z" fill="#8B8C9B"/>
<path d="M21.5 16.75H18.5C18.09 16.75 17.75 16.41 17.75 16C17.75 15.59 18.09 15.25 18.5 15.25H21.5C21.91 15.25 22.25 15.59 22.25 16C22.25 16.41 21.91 16.75 21.5 16.75ZM20 26.75C17.79 26.75 16 24.96 16 22.75C16 20.54 17.79 18.75 20 18.75C22.21 18.75 24 20.54 24 22.75C24 24.96 22.21 26.75 20 26.75ZM20 20.25C19.337 20.25 18.7011 20.5134 18.2322 20.9822C17.7634 21.4511 17.5 22.087 17.5 22.75C17.5 23.413 17.7634 24.0489 18.2322 24.5178C18.7011 24.9866 19.337 25.25 20 25.25C20.663 25.25 21.2989 24.9866 21.7678 24.5178C22.2366 24.0489 22.5 23.413 22.5 22.75C22.5 22.087 22.2366 21.4511 21.7678 20.9822C21.2989 20.5134 20.663 20.25 20 20.25Z" fill="#8B8C9B"/>
</svg>
