<svg width="24" height="24" viewBox="0 0 24 24" fill="none" xmlns="http://www.w3.org/2000/svg">
<path d="M14.5502 2H9.4502C7.6502 2 7.2502 2.9 7.0202 4.01L6.2002 7.93H17.8002L16.9802 4.01C16.7502 2.9 16.3502 2 14.5502 2Z" stroke="#8F0A0C" stroke-width="1.5" stroke-linecap="round" stroke-linejoin="round"/>
<path d="M6.2 5.75H5.47M18.53 5.75H17.8M7.65 10.83H9.82M14.18 10.83H16.35M12 17V18M12 21V22M3 18L2 22M21 18L22 22M19.24 14.32C19.32 15.17 18.64 15.9 17.77 15.9H16.41C15.63 15.9 15.52 15.57 15.38 15.15L15.23 14.72C15.03 14.13 14.9 13.73 13.85 13.73H10.14C9.1 13.73 8.94 14.18 8.76 14.72L8.61 15.15C8.47 15.56 8.36 15.9 7.58 15.9H6.22C5.35 15.9 4.67 15.17 4.75 14.32L5.16 9.9C5.26 8.81 5.47 7.92 7.37 7.92H16.62C18.52 7.92 18.73 8.81 18.83 9.9L19.24 14.32Z" stroke="#8F0A0C" stroke-width="1.5" stroke-linecap="round" stroke-linejoin="round"/>
</svg>
